<?xml version="1.0" encoding="UTF-8" standalone="no"?>
<!-- Created with Inkscape (http://www.inkscape.org/) -->

<svg
   xmlns:dc="http://purl.org/dc/elements/1.1/"
   xmlns:cc="http://creativecommons.org/ns#"
   xmlns:rdf="http://www.w3.org/1999/02/22-rdf-syntax-ns#"
   xmlns:svg="http://www.w3.org/2000/svg"
   xmlns="http://www.w3.org/2000/svg"
   xmlns:sodipodi="http://sodipodi.sourceforge.net/DTD/sodipodi-0.dtd"
   xmlns:inkscape="http://www.inkscape.org/namespaces/inkscape"
   width="210mm"
   height="50mm"
   viewBox="0 0 210 50"
   version="1.1"
   id="svg1477"
   inkscape:version="0.92.3 (2405546, 2018-03-11)"
   sodipodi:docname="hacker-camp-header.svg">
  <defs
     id="defs1471">
    <clipPath
       clipPathUnits="userSpaceOnUse"
       id="clipPath865">
      <path
         d="M 0,1340 H 2530 V 0 H 0 Z"
         id="path863"
         inkscape:connector-curvature="0" />
    </clipPath>
  </defs>
  <sodipodi:namedview
     id="base"
     pagecolor="#ffffff"
     bordercolor="#666666"
     borderopacity="1.0"
     inkscape:pageopacity="0.0"
     inkscape:pageshadow="2"
     inkscape:zoom="0.35"
     inkscape:cx="-1207.1429"
     inkscape:cy="560"
     inkscape:document-units="mm"
     inkscape:current-layer="layer1"
     showgrid="false"
     inkscape:window-width="3840"
     inkscape:window-height="2034"
     inkscape:window-x="0"
     inkscape:window-y="60"
     inkscape:window-maximized="1" />
  <metadata
     id="metadata1474">
    <rdf:RDF>
      <cc:Work
         rdf:about="">
        <dc:format>image/svg+xml</dc:format>
        <dc:type
           rdf:resource="http://purl.org/dc/dcmitype/StillImage" />
        <dc:title></dc:title>
      </cc:Work>
    </rdf:RDF>
  </metadata>
  <g
     inkscape:label="Layer 1"
     inkscape:groupmode="layer"
     id="layer1"
     transform="translate(0,-247)">
    <text
       y="292.11426"
       x="73.878975"
       style="font-variant:normal;font-weight:normal;font-stretch:normal;font-size:6.56205368px;font-family:Bungee;-inkscape-font-specification:Bungee-Regular;writing-mode:lr-tb;fill:#000000;fill-opacity:1;fill-rule:nonzero;stroke:none;stroke-width:0.09579528"
       id="text853">
      <tspan
         style="stroke-width:0.09579528"
         x="73.878975 77.822777 82.015923 83.459579 88.217064 89.693535 93.44046 98.092957 99.56942 104.40565 109.30094 113.54003 115.01649 119.20965 123.98026 127.92406"
         y="292.11426"
         sodipodi:role="line"
         id="tspan851">12 a 14 out 2018</tspan>
    </text>
    <text
       y="296.31549"
       x="82.720573"
       style="font-variant:normal;font-weight:normal;font-stretch:normal;font-size:3.51081133px;font-family:Bungee;-inkscape-font-specification:Bungee-Regular;writing-mode:lr-tb;fill:#000000;fill-opacity:1;fill-rule:nonzero;stroke:none;stroke-width:0.09579528"
       id="text857">
      <tspan
         style="stroke-width:0.09579528"
         x="82.720573 85.079842 87.502304 89.805397 92.245407 93.035339 95.654404 98.241875 99.014252 101.57714 104.01716 106.18684 108.48291 111.09144 113.3875 115.66954 116.45947 117.93402 118.72394 121.33248"
         y="296.31549"
         sodipodi:role="line"
         id="tspan855">Paty do Alferes - RJ</tspan>
    </text>
    <g
       transform="matrix(0.09579529,0,0,-0.09579529,-17.946988,366.86644)"
       id="g859">
      <g
         id="g861"
         clip-path="url(#clipPath865)">
        <g
           id="g867"
           transform="translate(954.29,1017.9482)">
          <path
             d="m 0,0 h -25.576 c -2.092,0 -3.605,0.466 -4.538,1.402 -0.936,0.933 -1.403,2.447 -1.403,4.538 v 106.926 c 0,2.09 0.467,3.604 1.403,4.539 0.933,0.934 2.446,1.403 4.538,1.403 H 0 c 2.088,0 3.602,-0.469 4.538,-1.403 0.933,-0.935 1.402,-2.449 1.402,-4.539 V 77.06 h 27.557 v 35.806 c 0,2.09 0.466,3.604 1.403,4.539 0.933,0.934 2.446,1.403 4.537,1.403 h 25.577 c 2.088,0 3.602,-0.469 4.537,-1.403 0.934,-0.935 1.403,-2.449 1.403,-4.539 V 5.94 C 70.954,3.849 70.485,2.335 69.551,1.402 68.616,0.466 67.102,0 65.014,0 H 39.437 C 37.346,0 35.833,0.466 34.9,1.402 33.963,2.335 33.497,3.849 33.497,5.94 V 42.573 H 5.94 V 5.94 C 5.94,3.849 5.471,2.335 4.538,1.402 3.602,0.466 2.088,0 0,0"
             style="fill:#7226f5;fill-opacity:1;fill-rule:nonzero;stroke:none"
             id="path869"
             inkscape:connector-curvature="0" />
        </g>
        <g
           id="g871"
           transform="translate(1091.0811,1102.1035)">
          <path
             d="M 0,0 -7.756,-25.082 H 18.151 L 10.396,0 C 9.955,0.99 9.488,1.705 8.993,2.145 8.498,2.584 7.92,2.806 7.261,2.806 H 3.136 C 2.475,2.806 1.898,2.584 1.403,2.145 0.907,1.705 0.438,0.99 0,0 m -9.406,-78.215 c 0,-2.092 -0.469,-3.605 -1.402,-4.538 -0.936,-0.936 -2.449,-1.402 -4.538,-1.402 h -24.256 c -2.091,0 -3.604,0.466 -4.538,1.402 -0.936,0.933 -1.402,2.446 -1.402,4.538 v 43.563 c 0,3.299 0.521,7.095 1.567,11.384 1.044,4.291 2.666,9.297 4.868,15.018 l 14.356,37.457 c 0.66,1.869 1.676,3.244 3.052,4.126 1.374,0.88 3.161,1.319 5.364,1.319 h 44.387 c 2.089,0 3.821,-0.439 5.198,-1.319 1.374,-0.882 2.392,-2.257 3.053,-4.126 L 50.659,-8.25 c 2.198,-5.721 3.82,-10.727 4.867,-15.018 1.044,-4.289 1.567,-8.085 1.567,-11.384 v -43.563 c 0,-2.092 -0.469,-3.605 -1.402,-4.538 -0.936,-0.936 -2.449,-1.402 -4.537,-1.402 H 26.237 c -2.202,0 -3.824,0.466 -4.868,1.402 -1.047,0.933 -1.568,2.446 -1.568,4.538 v 23.102 H -9.406 Z"
             style="fill:#7226f5;fill-opacity:1;fill-rule:nonzero;stroke:none"
             id="path873"
             inkscape:connector-curvature="0" />
        </g>
        <g
           id="g875"
           transform="translate(1247.5103,1017.9482)">
          <path
             d="m 0,0 h -40.263 c -13.753,0 -23.955,2.747 -30.61,8.25 -6.656,5.499 -9.982,13.97 -9.982,25.412 v 51.319 c 0,11.44 3.326,19.938 9.982,25.495 6.655,5.552 16.857,8.332 30.61,8.332 H 0 c 2.087,0 3.601,-0.469 4.537,-1.403 0.934,-0.935 1.403,-2.449 1.403,-4.539 V 92.901 C 5.94,90.811 5.471,89.298 4.537,88.363 3.601,87.427 2.087,86.961 0,86.961 h -33.167 c -3.412,0 -5.941,-0.689 -7.591,-2.064 -1.65,-1.376 -2.475,-3.438 -2.475,-6.187 V 39.438 c 0,-2.751 0.825,-4.759 2.475,-6.023 1.65,-1.266 4.179,-1.898 7.591,-1.898 H 0 c 2.087,0 3.601,-0.469 4.537,-1.403 0.934,-0.935 1.403,-2.45 1.403,-4.538 L 5.94,5.94 C 5.94,3.849 5.471,2.335 4.537,1.402 3.601,0.466 2.087,0 0,0"
             style="fill:#7226f5;fill-opacity:1;fill-rule:nonzero;stroke:none"
             id="path877"
             inkscape:connector-curvature="0" />
        </g>
        <g
           id="g879"
           transform="translate(1303.6113,1017.9482)">
          <path
             d="m 0,0 h -25.576 c -2.091,0 -3.605,0.466 -4.538,1.402 -0.936,0.933 -1.402,2.447 -1.402,4.538 v 106.926 c 0,2.09 0.466,3.604 1.402,4.539 0.933,0.934 2.447,1.403 4.538,1.403 H 0 c 2.09,0 3.603,-0.469 4.538,-1.403 0.933,-0.935 1.402,-2.449 1.402,-4.539 V 74.915 h 6.6 l 16.997,38.447 c 0.77,1.981 1.815,3.383 3.136,4.208 1.319,0.826 3.023,1.238 5.115,1.238 h 25.411 c 1.868,0 3.136,-0.469 3.796,-1.403 0.659,-0.935 0.603,-2.284 -0.167,-4.043 L 49.998,74.915 c 6.16,-0.33 11.082,-2.504 14.769,-6.518 3.684,-4.017 5.528,-9.324 5.528,-15.923 V 5.94 c 0,-2.091 -0.47,-3.605 -1.402,-4.538 C 67.956,0.466 66.442,0 64.354,0 H 38.942 C 36.851,0 35.338,0.466 34.404,1.402 33.47,2.335 33.002,3.849 33.002,5.94 v 32.176 c 0,1.76 -0.439,3.137 -1.319,4.127 -0.883,0.99 -2.203,1.485 -3.961,1.485 H 5.94 V 5.94 C 5.94,3.849 5.471,2.335 4.538,1.402 3.603,0.466 2.09,0 0,0"
             style="fill:#7226f5;fill-opacity:1;fill-rule:nonzero;stroke:none"
             id="path881"
             inkscape:connector-curvature="0" />
        </g>
        <g
           id="g883"
           transform="translate(1477.6953,1017.9482)">
          <path
             d="m 0,0 h -76.564 c -2.091,0 -3.606,0.466 -4.539,1.402 -0.936,0.933 -1.402,2.447 -1.402,4.538 v 106.926 c 0,2.09 0.466,3.604 1.402,4.539 0.933,0.934 2.448,1.403 4.539,1.403 H 0 c 2.089,0 3.602,-0.469 4.538,-1.403 0.933,-0.935 1.402,-2.449 1.402,-4.539 V 93.562 C 5.94,91.47 5.471,89.957 4.538,89.024 3.602,88.087 2.089,87.621 0,87.621 H -45.543 V 74.915 h 32.178 c 2.088,0 3.6,-0.47 4.537,-1.402 0.933,-0.937 1.402,-2.45 1.402,-4.539 V 51.317 c 0,-2.089 -0.469,-3.603 -1.402,-4.537 -0.937,-0.935 -2.449,-1.402 -4.537,-1.402 H -45.543 V 31.187 H 0 c 2.089,0 3.602,-0.469 4.538,-1.403 C 5.471,28.849 5.94,27.335 5.94,25.247 V 5.94 C 5.94,3.849 5.471,2.335 4.538,1.402 3.602,0.466 2.089,0 0,0"
             style="fill:#7226f5;fill-opacity:1;fill-rule:nonzero;stroke:none"
             id="path885"
             inkscape:connector-curvature="0" />
        </g>
        <g
           id="g887"
           transform="translate(1540.3965,1107.0547)">
          <path
             d="m 0,0 v -21.122 h 12.377 c 2.859,0 4.785,0.742 5.774,2.227 0.992,1.487 1.487,3.327 1.487,5.529 v 5.61 c 0,2.199 -0.495,4.043 -1.487,5.527 C 17.162,-0.743 15.236,0 12.377,0 Z m -5.939,-89.106 h -25.412 c -2.09,0 -3.605,0.465 -4.538,1.402 -0.936,0.933 -1.402,2.446 -1.402,4.538 V 23.76 c 0,2.09 0.466,3.603 1.402,4.539 0.933,0.933 2.448,1.402 4.538,1.402 h 54.948 c 12.32,0 20.817,-2.557 25.494,-7.672 4.675,-5.117 7.013,-11.744 7.013,-19.884 v -7.59 c 0,-4.621 -0.688,-8.556 -2.062,-11.799 -1.378,-3.246 -3.77,-5.584 -7.179,-7.014 5.941,-0.659 10.752,-3.08 14.439,-7.26 3.684,-4.181 5.528,-9.736 5.528,-16.666 v -34.982 c 0,-2.092 -0.469,-3.605 -1.402,-4.538 -0.936,-0.937 -2.45,-1.402 -4.538,-1.402 H 35.313 c -2.091,0 -3.604,0.465 -4.538,1.402 -0.935,0.933 -1.402,2.446 -1.402,4.538 v 25.246 c 0,2.418 -0.47,4.209 -1.402,5.363 -0.937,1.156 -2.559,1.733 -4.868,1.733 H 0 v -32.342 c 0,-2.092 -0.468,-3.605 -1.402,-4.538 -0.936,-0.937 -2.45,-1.402 -4.537,-1.402"
             style="fill:#7226f5;fill-opacity:1;fill-rule:nonzero;stroke:none"
             id="path889"
             inkscape:connector-curvature="0" />
        </g>
        <g
           id="g891"
           transform="translate(1115.1719,876.4053)">
          <path
             d="m 0,0 h -40.262 c -13.753,0 -23.955,2.748 -30.61,8.251 -6.657,5.498 -9.982,13.969 -9.982,25.411 v 51.319 c 0,11.44 3.325,19.938 9.982,25.495 6.655,5.552 16.857,8.332 30.61,8.332 H 0 c 2.089,0 3.603,-0.469 4.538,-1.403 0.933,-0.935 1.402,-2.448 1.402,-4.538 V 92.901 C 5.94,90.811 5.471,89.298 4.538,88.363 3.603,87.428 2.089,86.961 0,86.961 h -33.167 c -3.411,0 -5.94,-0.689 -7.59,-2.064 -1.65,-1.376 -2.475,-3.437 -2.475,-6.187 V 39.438 c 0,-2.751 0.825,-4.759 2.475,-6.023 1.65,-1.266 4.179,-1.898 7.59,-1.898 H 0 c 2.089,0 3.603,-0.469 4.538,-1.403 C 5.471,29.179 5.94,27.665 5.94,25.577 V 5.94 C 5.94,3.849 5.471,2.336 4.538,1.403 3.603,0.466 2.089,0 0,0"
             style="fill:#7226f5;fill-opacity:1;fill-rule:nonzero;stroke:none"
             id="path893"
             inkscape:connector-curvature="0" />
        </g>
        <g
           id="g895"
           transform="translate(1182.8247,960.5605)">
          <path
             d="M 0,0 -7.756,-25.081 H 18.151 L 10.396,0 C 9.955,0.99 9.488,1.705 8.993,2.145 8.498,2.584 7.92,2.806 7.261,2.806 H 3.136 C 2.475,2.806 1.898,2.584 1.403,2.145 0.907,1.705 0.438,0.99 0,0 m -9.406,-78.215 c 0,-2.092 -0.469,-3.604 -1.402,-4.537 -0.936,-0.937 -2.449,-1.403 -4.538,-1.403 h -24.256 c -2.091,0 -3.604,0.466 -4.538,1.403 -0.936,0.933 -1.402,2.445 -1.402,4.537 v 43.563 c 0,3.299 0.521,7.095 1.567,11.385 1.044,4.29 2.666,9.296 4.868,15.017 l 14.356,37.457 c 0.66,1.87 1.676,3.244 3.052,4.126 1.374,0.88 3.161,1.319 5.364,1.319 h 44.386 c 2.089,0 3.822,-0.439 5.199,-1.319 1.374,-0.882 2.392,-2.256 3.053,-4.126 L 50.659,-8.25 c 2.198,-5.721 3.82,-10.727 4.867,-15.017 1.044,-4.29 1.567,-8.086 1.567,-11.385 v -43.563 c 0,-2.092 -0.469,-3.604 -1.402,-4.537 -0.936,-0.937 -2.449,-1.403 -4.537,-1.403 H 26.237 c -2.202,0 -3.824,0.466 -4.868,1.403 -1.047,0.933 -1.568,2.445 -1.568,4.537 v 23.102 H -9.406 Z"
             style="fill:#7226f5;fill-opacity:1;fill-rule:nonzero;stroke:none"
             id="path897"
             inkscape:connector-curvature="0" />
        </g>
        <g
           id="g899"
           transform="translate(1290.7402,876.4053)">
          <path
             d="m 0,0 h -24.586 c -2.091,0 -3.604,0.466 -4.538,1.403 -0.937,0.933 -1.403,2.446 -1.403,4.537 v 106.927 c 0,2.09 0.466,3.603 1.403,4.538 0.934,0.934 2.447,1.403 4.538,1.403 H 1.98 c 1.758,0 3.218,-0.387 4.374,-1.155 1.154,-0.771 2.226,-2.037 3.216,-3.796 L 24.421,86.961 c 0.55,-0.989 1.017,-1.706 1.403,-2.146 0.384,-0.44 0.907,-0.66 1.568,-0.66 h 1.485 c 0.659,0 1.181,0.22 1.567,0.66 0.385,0.44 0.852,1.157 1.403,2.146 l 14.686,26.896 c 0.99,1.759 2.063,3.025 3.218,3.796 1.154,0.768 2.611,1.155 4.372,1.155 h 26.732 c 2.088,0 3.602,-0.469 4.538,-1.403 0.932,-0.935 1.402,-2.448 1.402,-4.538 V 5.94 c 0,-2.091 -0.47,-3.604 -1.402,-4.537 C 84.457,0.466 82.943,0 80.855,0 H 55.443 C 53.353,0 51.839,0.466 50.905,1.403 49.97,2.336 49.503,3.849 49.503,5.94 V 64.024 L 39.768,46.038 C 38.777,44.167 37.594,42.82 36.22,41.995 34.843,41.169 33.11,40.757 31.022,40.757 h -6.601 c -2.091,0 -3.823,0.412 -5.197,1.238 -1.377,0.825 -2.558,2.172 -3.548,4.043 L 5.94,64.024 V 5.94 C 5.94,3.849 5.471,2.336 4.537,1.403 3.602,0.466 2.088,0 0,0"
             style="fill:#7226f5;fill-opacity:1;fill-rule:nonzero;stroke:none"
             id="path901"
             inkscape:connector-curvature="0" />
        </g>
        <g
           id="g903"
           transform="translate(1437.4336,964.3555)">
          <path
             d="m 0,0 v -24.916 h 14.852 c 3.189,0 5.28,0.826 6.27,2.476 0.989,1.649 1.484,3.518 1.484,5.61 v 8.744 c 0,2.09 -0.495,3.962 -1.484,5.612 C 20.132,-0.824 18.041,0 14.852,0 Z m -5.61,-87.95 h -25.577 c -2.09,0 -3.604,0.466 -4.538,1.403 -0.935,0.933 -1.402,2.445 -1.402,4.537 V 24.917 c 0,2.09 0.467,3.603 1.402,4.538 0.934,0.934 2.448,1.402 4.538,1.402 h 50.494 c 14.959,0 25.189,-2.968 30.691,-8.91 5.5,-5.939 8.251,-13.695 8.251,-23.265 V -22.44 c 0,-9.572 -2.751,-17.327 -8.251,-23.267 -5.502,-5.94 -15.732,-8.912 -30.691,-8.912 H 0.33 V -82.01 c 0,-2.092 -0.469,-3.604 -1.402,-4.537 -0.936,-0.937 -2.449,-1.403 -4.538,-1.403"
             style="fill:#7226f5;fill-opacity:1;fill-rule:nonzero;stroke:none"
             id="path905"
             inkscape:connector-curvature="0" />
        </g>
        <g
           id="g907"
           transform="translate(638.7988,861.3926)">
          <path
             d="m 0,0 h -154.992 c -2.673,0 -5.18,1.313 -6.715,3.506 -1.511,2.199 -1.863,5.012 -0.928,7.514 l 48.947,130.519 c 1.196,3.18 4.242,5.293 7.641,5.293 H 57.104 c 2.756,0 5.319,-1.383 6.826,-3.701 1.501,-2.293 1.745,-5.209 0.645,-7.727 L 7.472,4.885 C 6.168,1.914 3.239,0 0,0 M -143.219,16.316 H -5.34 L 44.621,130.52 h -145.012 z"
             style="fill:#000000;fill-opacity:1;fill-rule:nonzero;stroke:none"
             id="path909"
             inkscape:connector-curvature="0" />
        </g>
        <g
           id="g911"
           transform="translate(753.0029,861.3926)">
          <path
             d="m 0,0 h -114.204 c -2.756,0 -5.327,1.385 -6.828,3.695 -1.508,2.299 -1.753,5.211 -0.645,7.731 l 57.099,130.517 c 1.301,2.971 4.228,4.889 7.478,4.889 3.235,0 6.175,-1.918 7.471,-4.889 L 7.474,11.426 C 8.574,8.906 8.328,5.994 6.825,3.695 5.319,1.385 2.756,0 0,0 m -101.731,16.316 h 89.252 L -57.1,118.32 Z"
             style="fill:#000000;fill-opacity:1;fill-rule:nonzero;stroke:none"
             id="path913"
             inkscape:connector-curvature="0" />
        </g>
        <g
           id="g915"
           transform="translate(695.9009,861.3926)">
          <path
             d="m 0,0 c -4.514,0 -8.159,3.652 -8.159,8.156 v 130.52 c 0,4.5 3.645,8.156 8.159,8.156 4.509,0 8.154,-3.656 8.154,-8.156 V 8.156 C 8.154,3.652 4.509,0 0,0"
             style="fill:#000000;fill-opacity:1;fill-rule:nonzero;stroke:none"
             id="path917"
             inkscape:connector-curvature="0" />
        </g>
        <g
           id="g919"
           transform="translate(2021.1035,853.4121)">
          <path
             d="m 0,0 102.672,1.43 c 1.769,0.023 3.418,0.918 4.416,2.384 0.979,1.471 1.187,3.336 0.545,4.987 L 74.006,94.809 c -0.821,2.093 -2.86,3.466 -5.111,3.435 L -39.18,96.74 c -1.826,-0.025 -3.512,-0.965 -4.488,-2.513 -0.974,-1.534 -1.108,-3.467 -0.357,-5.125 L -4.995,3.168 C -4.103,1.211 -2.145,-0.029 0,0 m 94.722,12.129 -91.335,-1.272 -34.148,75.192 96.06,1.336 z"
             style="fill:#000000;fill-opacity:1;fill-rule:nonzero;stroke:none"
             id="path921"
             inkscape:connector-curvature="0" />
        </g>
        <g
           id="g923"
           transform="translate(1945.4512,852.3594)">
          <path
             d="m 0,0 75.652,1.053 c 1.827,0.025 3.517,0.968 4.49,2.511 0.977,1.538 1.113,3.469 0.356,5.127 L 41.471,94.623 c -0.89,1.955 -2.847,3.199 -4.998,3.17 -2.144,-0.029 -4.075,-1.328 -4.906,-3.307 L -5.055,7.5 C -5.76,5.822 -5.571,3.895 -4.555,2.385 -3.535,0.869 -1.825,-0.025 0,0 M 67.24,11.746 8.118,10.924 36.735,78.906 Z"
             style="fill:#000000;fill-opacity:1;fill-rule:nonzero;stroke:none"
             id="path925"
             inkscape:connector-curvature="0" />
        </g>
        <g
           id="g927"
           transform="translate(1983.2783,852.8867)">
          <path
             d="M 0,0 C 2.99,0.041 5.371,2.494 5.33,5.479 L 4.126,91.938 C 4.085,94.92 1.637,97.307 -1.354,97.266 -4.341,97.225 -6.722,94.77 -6.68,91.787 L -5.477,5.328 C -5.436,2.344 -2.987,-0.043 0,0"
             style="fill:#000000;fill-opacity:1;fill-rule:nonzero;stroke:none"
             id="path929"
             inkscape:connector-curvature="0" />
        </g>
        <g
           id="g931"
           transform="translate(857.3311,884.459)">
          <path
             d="m 0,0 c -2.578,0 -5.221,0.266 -7.853,0.793 -18.75,3.789 -32.342,21.086 -32.342,41.135 v 3.23 c 0,15.83 13.388,29.158 31.135,31.012 2.163,0.217 4.33,-0.672 5.702,-2.385 1.369,-1.711 1.775,-4.008 1.085,-6.086 -1.708,-5.113 -2.535,-11.09 -2.193,-14.547 1.362,0.354 2.412,0.83 2.652,1.25 0,2.969 2.046,5.7 4.921,6.401 2.911,0.709 5.898,-0.506 7.271,-3.131 0.147,-0.297 2.316,-4.484 4.079,-10.424 2.706,3.932 4.922,8.49 4.922,12.787 0,2.826 1.838,5.317 4.527,6.162 2.688,0.834 5.624,-0.162 7.226,-2.484 0.618,-0.897 6.086,-9.318 6.086,-27.817 C 37.218,15.766 20.873,0 0,0 m -17.08,60.525 c -6.18,-3.289 -10.214,-9 -10.214,-15.367 v -3.23 c 0,-13.93 9.252,-25.91 21.99,-28.487 16.14,-3.228 29.624,7.713 29.624,22.455 0,0.981 -0.02,1.926 -0.053,2.838 -4.31,-5.929 -8.927,-9.933 -9.857,-10.722 -1.925,-1.619 -4.604,-1.967 -6.875,-0.914 -2.272,1.056 -3.73,3.338 -3.73,5.847 0,3.118 -0.55,6.252 -1.269,9.041 -4.711,-2.175 -9.839,-2.281 -11.009,-2.238 -1.762,0.018 -3.438,0.76 -4.636,2.049 -4.429,4.756 -4.765,12.316 -3.971,18.728"
             style="fill:#000000;fill-opacity:1;fill-rule:nonzero;stroke:none"
             id="path933"
             inkscape:connector-curvature="0" />
        </g>
        <g
           id="g935"
           transform="translate(894.5532,858.6602)">
          <path
             d="m 0,0 c -4.959,0 -9.905,1.885 -13.683,5.664 l -22.539,22.533 c -1.704,1.709 -2.317,4.223 -1.582,6.528 0.742,2.3 2.698,3.996 5.083,4.388 7.362,1.235 13.536,5.491 16.948,11.701 0.983,1.78 2.738,2.999 4.751,3.282 1.992,0.277 4.036,-0.389 5.462,-1.825 L 13.684,33.027 c 3.653,-3.654 5.67,-8.509 5.67,-13.685 0,-5.168 -2.017,-10.024 -5.67,-13.678 C 9.91,1.885 4.956,0 0,0 M -19.715,29.936 -4.562,14.781 c 2.516,-2.508 6.599,-2.508 9.125,0 1.22,1.219 1.89,2.84 1.89,4.561 0,1.722 -0.67,3.342 -1.89,4.562 L -9.333,37.799 c -2.934,-3.225 -6.451,-5.875 -10.382,-7.863"
             style="fill:#000000;fill-opacity:1;fill-rule:nonzero;stroke:none"
             id="path937"
             inkscape:connector-curvature="0" />
        </g>
        <g
           id="g939"
           transform="translate(823.5903,858.666)">
          <path
             d="m 0,0 c -4.961,0 -9.912,1.881 -13.684,5.658 -3.662,3.655 -5.67,8.51 -5.67,13.678 0,5.174 2.008,10.037 5.67,13.689 l 16.767,16.77 c 1.31,1.316 3.148,2.014 4.972,1.883 1.853,-0.121 3.562,-1.026 4.692,-2.496 4.073,-5.258 9.489,-8.69 15.685,-9.942 h 0.005 c 0.433,-0.082 0.878,-0.101 1.315,-0.129 l 1.324,-0.113 c 0.103,-0.008 0.625,-0.078 0.738,-0.094 2.398,-0.375 4.655,-2.093 5.41,-4.406 0.761,-2.309 0.419,-4.885 -1.303,-6.603 L 13.683,5.658 C 9.908,1.881 4.955,0 0,0 M 7.481,35.949 -4.563,23.898 c -1.226,-1.216 -1.888,-2.839 -1.888,-4.562 0,-1.719 0.662,-3.342 1.888,-4.555 2.518,-2.521 6.6,-2.513 9.123,-0.006 l 14.057,14.063 c -4.044,1.707 -7.814,4.113 -11.136,7.111"
             style="fill:#000000;fill-opacity:1;fill-rule:nonzero;stroke:none"
             id="path941"
             inkscape:connector-curvature="0" />
        </g>
        <g
           id="g943"
           transform="translate(1782.8652,1187.2148)">
          <path
             d="M 0,0 C 8.164,0 15.205,-3.412 20.168,-6.783 16.301,21.848 -5.257,44.939 -33.109,51.1 -24.765,38.73 -19.892,16.238 -18.842,-6.662 -12.969,-2.238 -6.66,-0.004 -0.01,0 Z m 24.857,-20.105 c -1.135,0 -2.243,0.478 -3.035,1.359 -0.086,0.1 -9.714,10.611 -21.822,10.611 h -0.057 c -6.896,-0.015 -13.494,-3.5 -19.599,-10.349 -1.128,-1.26 -2.917,-1.688 -4.485,-1.094 -1.574,0.601 -2.62,2.109 -2.623,3.793 -0.049,42.439 -12.379,68.496 -21.195,68.496 -2.247,0 -4.066,1.816 -4.066,4.068 0,2.25 1.819,4.067 4.066,4.067 42.394,0 76.881,-34.485 76.881,-76.883 0,-1.692 -1.037,-3.193 -2.613,-3.797 -0.471,-0.184 -0.962,-0.271 -1.452,-0.271"
             style="fill:#7226f5;fill-opacity:1;fill-rule:nonzero;stroke:none"
             id="path945"
             inkscape:connector-curvature="0" />
        </g>
        <g
           id="g947"
           transform="translate(1754.3848,1234.8086)">
          <path
             d="m 0,0 c 6.1,-11.768 10.312,-29.859 11.631,-50.234 5.311,3.216 10.963,4.845 16.837,4.851 h 0.012 c 6.67,0 12.592,-2.148 17.171,-4.597 C 40.697,-26.344 23.079,-7.076 0,0 m 51.508,-58.988 -4.1,2.779 c -4.3,2.922 -11.076,6.404 -18.928,6.404 l -0.009,2.211 0.002,-2.211 C 22.334,-49.813 16.444,-51.9 10.965,-56.02 l -3.345,-2.517 -0.19,4.18 C 6.318,-30.152 1.127,-8.982 -6.461,2.266 L -9.555,6.857 -4.152,5.658 C 24.776,-0.73 46.878,-24.74 50.844,-54.076 Z m -23.092,5.468 c 13.141,0 23.443,-11.246 23.545,-11.353 0.492,-0.553 1.329,-0.76 2.045,-0.49 0.717,0.273 1.184,0.957 1.184,1.732 0,41.174 -33.498,74.674 -74.669,74.674 -1.022,0 -1.855,-0.834 -1.855,-1.857 0,-1.026 0.833,-1.854 1.855,-1.854 11.264,0 23.359,-28.41 23.409,-70.703 0.004,-0.779 0.472,-1.457 1.199,-1.733 0.707,-0.273 1.543,-0.062 2.043,0.499 6.542,7.335 13.693,11.062 21.244,11.085 m 24.922,-16.392 c -1.785,0 -3.49,0.769 -4.68,2.099 -0.086,0.088 -9.128,9.877 -20.178,9.877 -6.293,-0.017 -12.334,-3.255 -18.007,-9.615 -1.708,-1.906 -4.536,-2.592 -6.917,-1.689 -2.417,0.92 -4.042,3.273 -4.048,5.859 -0.049,42.893 -12.57,66.289 -18.987,66.289 -3.461,0 -6.276,2.817 -6.276,6.278 0,3.46 2.815,6.281 6.276,6.281 43.611,0 79.094,-35.485 79.094,-79.098 0,-2.623 -1.584,-4.924 -4.033,-5.863 -0.726,-0.277 -1.477,-0.418 -2.244,-0.418"
             style="fill:#7226f5;fill-opacity:1;fill-rule:nonzero;stroke:none"
             id="path949"
             inkscape:connector-curvature="0" />
        </g>
        <g
           id="g951"
           transform="translate(1720.0547,1238.3145)">
          <path
             d="m 0,0 c -27.852,-6.16 -49.407,-29.252 -53.28,-57.883 4.967,3.371 12.011,6.783 20.169,6.783 h 0.01 c 6.654,-0.004 12.958,-2.238 18.835,-6.662 C -13.217,-34.861 -8.34,-12.369 0,0 m -57.966,-71.197 c -0.489,0 -0.981,0.086 -1.456,0.265 -1.569,0.606 -2.609,2.11 -2.609,3.795 0,42.399 34.488,76.883 76.883,76.883 2.242,0 4.066,-1.816 4.066,-4.066 0,-2.252 -1.824,-4.069 -4.066,-4.069 -8.815,0 -21.148,-26.056 -21.201,-68.496 0,-1.683 -1.04,-3.191 -2.617,-3.793 -1.575,-0.593 -3.36,-0.166 -4.48,1.094 -6.112,6.85 -12.706,10.334 -19.606,10.35 h -0.059 c -12.108,0 -21.729,-10.512 -21.827,-10.618 -0.787,-0.875 -1.897,-1.345 -3.028,-1.345"
             style="fill:#7226f5;fill-opacity:1;fill-rule:nonzero;stroke:none"
             id="path953"
             inkscape:connector-curvature="0" />
        </g>
        <g
           id="g955"
           transform="translate(1686.9434,1189.4258)">
          <path
             d="M 0,0 C 5.889,-0.006 11.537,-1.635 16.853,-4.852 18.17,15.521 22.381,33.615 28.486,45.383 5.404,38.307 -12.213,19.039 -17.168,-4.598 -12.592,-2.148 -6.668,0 0,0 m -23.022,-13.605 0.665,4.912 c 3.965,29.336 26.064,53.345 54.992,59.734 l 5.406,1.199 -3.094,-4.592 C 27.355,36.391 22.161,15.229 21.054,-8.975 l -0.189,-4.179 -3.346,2.517 c -5.48,4.119 -11.367,6.207 -17.508,6.215 -7.858,0 -14.634,-3.482 -18.936,-6.404 z m 70.985,70.031 c -41.173,0 -74.67,-33.5 -74.67,-74.674 0,-0.758 0.478,-1.455 1.191,-1.731 0.696,-0.265 1.537,-0.064 2.048,0.499 0.099,0.109 10.357,11.343 23.468,11.343 7.618,-0.023 14.77,-3.75 21.315,-11.092 0.498,-0.554 1.337,-0.765 2.046,-0.492 0.72,0.276 1.194,0.953 1.194,1.733 0.049,42.293 12.143,70.703 23.408,70.703 1.022,0 1.854,0.828 1.854,1.853 0,1.024 -0.832,1.858 -1.854,1.858 m -72.817,-80.947 c -0.771,0 -1.531,0.138 -2.251,0.416 -2.408,0.927 -4.026,3.279 -4.026,5.857 0,43.613 35.481,79.098 79.094,79.098 3.461,0 6.281,-2.821 6.281,-6.282 0,-3.461 -2.82,-6.277 -6.281,-6.277 -6.418,0 -18.934,-23.396 -18.987,-66.289 -0.005,-2.582 -1.63,-4.94 -4.046,-5.859 -2.402,-0.911 -5.221,-0.215 -6.918,1.689 -5.674,6.359 -11.717,9.598 -17.96,9.615 -11.086,0 -20.153,-9.799 -20.241,-9.896 -1.188,-1.315 -2.889,-2.072 -4.665,-2.072"
             style="fill:#7226f5;fill-opacity:1;fill-rule:nonzero;stroke:none"
             id="path957"
             inkscape:connector-curvature="0" />
        </g>
        <g
           id="g959"
           transform="translate(1734.9063,1187.4414)">
          <path
             d="M 0,0 C 1.655,0 3.309,-0.066 4.957,-0.199 11.722,-0.756 17.09,-3.518 20.974,-6.42 19.25,30.318 8.131,52.484 0,52.484 c -8.131,0 -19.252,-22.166 -20.975,-58.904 3.888,2.904 9.245,5.664 16.014,6.221 C -3.314,-0.066 -1.658,0 0,0 m -25.025,-20.332 c -1.155,0 -2.263,0.496 -3.033,1.367 -0.669,0.742 -1.275,1.967 -1.272,2.965 0.044,37.145 10.338,76.619 29.33,76.619 18.992,0 29.285,-39.474 29.33,-76.619 0.004,-0.986 -0.352,-1.93 -0.996,-2.674 -0.031,-0.037 -0.257,-0.279 -0.295,-0.316 -0.849,-0.91 -2.06,-1.442 -3.34,-1.297 -1.238,0.109 -2.388,0.744 -3.074,1.789 -0.052,0.078 -6.344,9.289 -17.331,10.191 -2.851,0.237 -5.743,0.237 -8.594,0 -11.106,-0.91 -17.263,-10.097 -17.326,-10.191 -0.696,-1.055 -1.84,-1.729 -3.101,-1.82 -0.097,-0.006 -0.198,-0.014 -0.298,-0.014"
             style="fill:#7226f5;fill-opacity:1;fill-rule:nonzero;stroke:none"
             id="path961"
             inkscape:connector-curvature="0" />
        </g>
        <g
           id="g963"
           transform="translate(1734.9063,1189.6504)">
          <path
             d="M 0,0 C 1.697,0 3.424,-0.066 5.133,-0.203 9.844,-0.592 14.327,-1.99 18.509,-4.371 16.121,30.078 5.396,48.066 0,48.066 c -5.396,0 -16.118,-17.992 -18.509,-52.437 4.179,2.385 8.655,3.779 13.366,4.168 C -3.426,-0.066 -1.7,0 0,0 m -23.4,-13.217 0.222,4.69 C -21.416,29.16 -9.777,52.49 0,52.49 c 9.772,0 21.416,-23.33 23.179,-61.017 l 0.221,-4.684 -3.754,2.809 C 15.101,-7 10.095,-5.047 4.774,-4.609 c -3.17,0.252 -6.371,0.252 -9.563,0 C -10.104,-5.047 -15.106,-7 -19.646,-10.402 Z M 0,56.201 c -16.922,0 -27.077,-37.836 -27.121,-74.414 0,-0.324 0.31,-1.039 0.711,-1.488 0.352,-0.401 0.859,-0.627 1.385,-0.627 l 0.103,0.006 c 0.606,0.037 1.133,0.355 1.449,0.832 0.278,0.424 6.869,10.185 18.994,11.177 1.472,0.122 2.983,0.184 4.476,0.184 1.491,0 3.001,-0.062 4.483,-0.184 11.59,-0.951 18.24,-10.091 18.961,-11.126 0.329,-0.502 0.86,-0.799 1.45,-0.85 0.113,-0.016 0.17,-0.018 0.227,-0.018 0.46,0 0.937,0.225 1.306,0.619 l 0.246,0.264 c 0.287,0.328 0.45,0.762 0.45,1.211 C 27.076,18.365 16.916,56.201 0,56.201 m -25.025,-80.955 c -1.792,0 -3.499,0.775 -4.688,2.111 -0.844,0.94 -1.836,2.678 -1.831,4.438 0.048,39.17 10.896,78.83 31.544,78.83 20.645,0 31.495,-39.66 31.543,-78.834 0.004,-1.512 -0.542,-2.973 -1.538,-4.119 -0.026,-0.033 -0.347,-0.381 -0.4,-0.428 -1.294,-1.392 -3.226,-2.148 -5.152,-1.935 -1.905,0.162 -3.629,1.177 -4.678,2.777 -0.207,0.297 -5.923,8.396 -15.664,9.195 -2.716,0.223 -5.509,0.221 -8.227,0 -9.914,-0.814 -15.613,-9.127 -15.668,-9.213 -1.064,-1.611 -2.853,-2.664 -4.783,-2.804 -0.124,-0.006 -0.295,-0.018 -0.458,-0.018"
             style="fill:#7226f5;fill-opacity:1;fill-rule:nonzero;stroke:none"
             id="path965"
             inkscape:connector-curvature="0" />
        </g>
        <g
           id="g967"
           transform="translate(1734.9111,1088.0801)">
          <path
             d="m 0,0 c -1.1,0 -2.192,0.438 -2.996,1.311 l -72.817,79.031 c -1.524,1.652 -1.417,4.224 0.236,5.746 1.648,1.521 4.224,1.42 5.746,-0.233 L 2.985,6.818 C 4.508,5.166 4.408,2.59 2.751,1.068 1.969,0.354 0.983,0 0,0"
             style="fill:#7226f5;fill-opacity:1;fill-rule:nonzero;stroke:none"
             id="path969"
             inkscape:connector-curvature="0" />
        </g>
        <g
           id="g971"
           transform="translate(1662.0889,1173.0352)">
          <path
             d="M 0,0 C -0.468,0 -0.913,-0.178 -1.255,-0.492 -1.622,-0.83 -1.834,-1.287 -1.854,-1.785 -1.876,-2.277 -1.7,-2.75 -1.363,-3.117 L 71.454,-82.15 c 0.67,-0.723 1.883,-0.786 2.625,-0.102 0.36,0.332 0.573,0.785 0.593,1.279 0.022,0.496 -0.152,0.971 -0.491,1.34 L 1.366,-0.6 C 1.012,-0.215 0.525,0 0,0 m 72.822,-87.17 c -1.751,0 -3.432,0.734 -4.618,2.022 L -4.618,-6.113 c -1.135,1.236 -1.725,2.836 -1.655,4.515 0.068,1.672 0.786,3.219 2.02,4.358 1.162,1.066 2.672,1.66 4.253,1.66 1.751,0 3.434,-0.738 4.616,-2.02 l 72.817,-79.037 c 1.135,-1.238 1.726,-2.834 1.658,-4.509 -0.068,-1.68 -0.784,-3.229 -2.021,-4.366 -1.165,-1.07 -2.677,-1.658 -4.248,-1.658"
             style="fill:#7226f5;fill-opacity:1;fill-rule:nonzero;stroke:none"
             id="path973"
             inkscape:connector-curvature="0" />
        </g>
        <g
           id="g975"
           transform="translate(1734.9063,1088.0801)">
          <path
             d="m 0,0 c -0.701,0 -1.404,0.17 -2.043,0.545 -1.646,0.959 -2.41,2.935 -1.83,4.752 l 25.264,79.295 c 0.677,2.137 2.961,3.324 5.111,2.642 2.139,-0.685 3.319,-2.972 2.639,-5.111 L 9.447,20.316 69.826,85.855 c 1.521,1.653 4.087,1.754 5.747,0.233 1.652,-1.522 1.755,-4.094 0.237,-5.746 L 2.99,1.311 C 2.199,0.449 1.107,0 0,0"
             style="fill:#7226f5;fill-opacity:1;fill-rule:nonzero;stroke:none"
             id="path977"
             inkscape:connector-curvature="0" />
        </g>
        <g
           id="g979"
           transform="translate(1760.1689,1173.2949)">
          <path
             d="M 0,0 C -0.81,0 -1.519,-0.521 -1.765,-1.293 L -27.03,-80.59 c -0.264,-0.822 0.088,-1.732 0.836,-2.166 0.738,-0.433 1.72,-0.281 2.295,0.346 l 72.818,79.033 c 0.336,0.367 0.512,0.84 0.492,1.332 -0.02,0.498 -0.235,0.955 -0.598,1.293 -0.732,0.666 -1.95,0.625 -2.623,-0.107 l -60.378,-65.536 -3.735,2.17 L 1.77,-2.42 C 2.081,-1.451 1.539,-0.4 0.563,-0.092 0.38,-0.033 0.191,0 0,0 m -25.263,-87.43 c -1.11,0 -2.203,0.293 -3.159,0.85 -2.52,1.469 -3.71,4.553 -2.821,7.334 L -5.979,0.051 C -5.146,2.66 -2.745,4.422 0,4.422 0.649,4.422 1.288,4.32 1.909,4.123 5.205,3.074 7.034,-0.465 5.984,-3.762 L -10.679,-56.057 42.936,2.141 c 1.184,1.281 2.866,2.019 4.615,2.019 1.578,0 3.089,-0.59 4.256,-1.66 1.234,-1.139 1.951,-2.686 2.02,-4.357 0.069,-1.68 -0.518,-3.28 -1.655,-4.516 l -72.819,-79.035 c -1.187,-1.287 -2.872,-2.022 -4.616,-2.022"
             style="fill:#7226f5;fill-opacity:1;fill-rule:nonzero;stroke:none"
             id="path981"
             inkscape:connector-curvature="0" />
        </g>
        <g
           id="g983"
           transform="translate(1734.9063,1088.0801)">
          <path
             d="m 0,0 c -1.727,0 -3.324,1.102 -3.873,2.826 l -25.265,79.297 c -0.686,2.139 0.501,4.426 2.638,5.111 2.155,0.682 4.429,-0.511 5.108,-2.642 L 3.875,5.297 C 4.559,3.154 3.373,0.873 1.236,0.188 0.825,0.055 0.408,0 0,0"
             style="fill:#7226f5;fill-opacity:1;fill-rule:nonzero;stroke:none"
             id="path985"
             inkscape:connector-curvature="0" />
        </g>
        <g
           id="g987"
           transform="translate(1709.6426,1173.2949)">
          <path
             d="M 0,0 C -0.188,0 -0.383,-0.033 -0.567,-0.092 -1.036,-0.24 -1.422,-0.564 -1.649,-1.006 -1.874,-1.451 -1.92,-1.947 -1.768,-2.42 l 25.264,-79.297 c 0.306,-0.961 1.413,-1.492 2.328,-1.203 0.979,0.309 1.517,1.356 1.21,2.33 L 1.768,-1.297 C 1.521,-0.521 0.809,0 0,0 m 25.264,-87.43 c -2.745,0 -5.149,1.756 -5.981,4.371 L -5.981,-3.762 c -0.51,1.592 -0.368,3.295 0.403,4.785 0.77,1.495 2.075,2.594 3.668,3.1 0.625,0.197 1.265,0.299 1.91,0.299 2.742,0 5.144,-1.76 5.979,-4.371 l 25.264,-79.297 c 1.052,-3.299 -0.772,-6.834 -4.073,-7.891 -0.61,-0.193 -1.256,-0.293 -1.906,-0.293"
             style="fill:#7226f5;fill-opacity:1;fill-rule:nonzero;stroke:none"
             id="path989"
             inkscape:connector-curvature="0" />
        </g>
        <path
           d="m 1719.345,1060.992 h 31.126 v 27.088 h -31.126 z m 35.192,-8.133 h -39.262 c -2.243,0 -4.064,1.823 -4.064,4.067 v 35.217 c 0,2.252 1.821,4.064 4.064,4.064 h 39.262 c 2.248,0 4.067,-1.812 4.067,-4.064 v -35.217 c 0,-2.244 -1.819,-4.067 -4.067,-4.067"
           style="fill:#7226f5;fill-opacity:1;fill-rule:nonzero;stroke:none"
           id="path991"
           inkscape:connector-curvature="0" />
        <path
           d="m 1721.554,1063.203 h 26.704 v 22.662 h -26.704 z m 31.131,-4.424 h -35.554 v 31.508 h 35.554 z m -37.41,35.217 c -1.022,0 -1.855,-0.83 -1.855,-1.853 v -35.217 c 0,-1.028 0.833,-1.858 1.855,-1.858 h 39.262 c 1.025,0 1.852,0.83 1.852,1.858 v 35.217 c 0,1.023 -0.827,1.853 -1.852,1.853 z m 39.262,-43.351 h -39.262 c -3.459,0 -6.279,2.818 -6.279,6.281 v 35.217 c 0,3.459 2.82,6.279 6.279,6.279 h 39.262 c 3.463,0 6.281,-2.82 6.281,-6.279 v -35.217 c 0,-3.463 -2.818,-6.281 -6.281,-6.281"
           style="fill:#7226f5;fill-opacity:1;fill-rule:nonzero;stroke:none"
           id="path993"
           inkscape:connector-curvature="0" />
        <g
           id="g995"
           transform="translate(533.5781,771.5859)">
          <path
             d="m 0,0 h -251.054 c -3.662,0 -6.634,2.967 -6.634,6.637 0,3.662 2.972,6.633 6.634,6.633 L 0,13.266 c 3.663,0 6.633,-2.967 6.633,-6.629 C 6.633,2.967 3.663,0 0,0"
             style="fill:#000000;fill-opacity:1;fill-rule:nonzero;stroke:none"
             id="path997"
             inkscape:connector-curvature="0" />
        </g>
        <g
           id="g999"
           transform="translate(795.0801,813.6016)">
          <path
             d="m 0,0 h -370.606 c -3.662,0 -6.634,2.969 -6.634,6.637 0,3.664 2.972,6.633 6.634,6.633 L 0,13.268 c 3.663,0 6.633,-2.967 6.633,-6.631 C 6.633,2.969 3.663,0 0,0"
             style="fill:#000000;fill-opacity:1;fill-rule:nonzero;stroke:none"
             id="path1001"
             inkscape:connector-curvature="0" />
        </g>
        <g
           id="g1003"
           transform="translate(849.9424,771.5859)">
          <path
             d="m 0,0 h -87.896 c -3.663,0 -6.634,2.967 -6.634,6.637 0,3.662 2.971,6.629 6.634,6.629 H 0 c 3.666,0 6.634,-2.967 6.634,-6.629 C 6.634,2.967 3.666,0 0,0"
             style="fill:#000000;fill-opacity:1;fill-rule:nonzero;stroke:none"
             id="path1005"
             inkscape:connector-curvature="0" />
        </g>
        <g
           id="g1007"
           transform="translate(1998.9551,773.5859)">
          <path
             d="m 0,0 h -325.545 c -3.662,0 -6.635,2.967 -6.635,6.637 0,3.662 2.973,6.633 6.635,6.633 L 0,13.266 c 3.663,0 6.633,-2.967 6.633,-6.629 C 6.633,2.967 3.663,0 0,0"
             style="fill:#000000;fill-opacity:1;fill-rule:nonzero;stroke:none"
             id="path1009"
             inkscape:connector-curvature="0" />
        </g>
        <g
           id="g1011"
           transform="translate(2244.0039,815.1055)">
          <path
             d="m 0,0 h -346.565 c -3.663,0 -6.635,2.969 -6.635,6.637 0,3.664 2.972,6.633 6.635,6.633 L 0,13.268 c 3.663,0 6.633,-2.967 6.633,-6.631 C 6.633,2.969 3.663,0 0,0"
             style="fill:#000000;fill-opacity:1;fill-rule:nonzero;stroke:none"
             id="path1013"
             inkscape:connector-curvature="0" />
        </g>
        <g
           id="g1015"
           transform="translate(2316.7803,773.5859)">
          <path
             d="m 0,0 h -87.896 c -3.663,0 -6.633,2.967 -6.633,6.637 0,3.662 2.97,6.629 6.633,6.629 H 0 c 3.666,0 6.634,-2.967 6.634,-6.629 C 6.634,2.967 3.666,0 0,0"
             style="fill:#000000;fill-opacity:1;fill-rule:nonzero;stroke:none"
             id="path1017"
             inkscape:connector-curvature="0" />
        </g>
        <g
           id="g1019"
           transform="translate(2165.4063,773.5859)">
          <path
             d="m 0,0 h -75.885 c -3.662,0 -6.633,2.967 -6.633,6.637 0,3.662 2.971,6.629 6.633,6.629 H 0 c 3.666,0 6.634,-2.967 6.634,-6.629 C 6.634,2.967 3.666,0 0,0"
             style="fill:#000000;fill-opacity:1;fill-rule:nonzero;stroke:none"
             id="path1021"
             inkscape:connector-curvature="0" />
        </g>
        <g
           id="g1023"
           transform="translate(2353.1777,814.8037)">
          <path
             d="m 0,0 h -52.862 c -3.662,0 -6.633,2.967 -6.633,6.637 0,3.662 2.971,6.629 6.633,6.629 H 0 c 3.666,0 6.634,-2.967 6.634,-6.629 C 6.634,2.967 3.666,0 0,0"
             style="fill:#000000;fill-opacity:1;fill-rule:nonzero;stroke:none"
             id="path1025"
             inkscape:connector-curvature="0" />
        </g>
        <g
           id="g1027"
           transform="translate(659.8457,773.5859)">
          <path
             d="m 0,0 h -54.875 c -3.662,0 -6.632,2.967 -6.632,6.637 0,3.662 2.97,6.629 6.632,6.629 H 0 c 3.666,0 6.634,-2.967 6.634,-6.629 C 6.634,2.967 3.666,0 0,0"
             style="fill:#000000;fill-opacity:1;fill-rule:nonzero;stroke:none"
             id="path1029"
             inkscape:connector-curvature="0" />
        </g>
        <g
           id="g1031"
           transform="translate(597.0479,1041.8691)">
          <path
             d="m 0,0 c -1.173,0 -2.357,0.313 -3.431,0.959 l -100.936,61.17 -88.346,-57.873 c -3.059,-2.012 -7.174,-1.154 -9.184,1.91 -2.006,3.068 -1.151,7.178 1.913,9.188 l 91.847,60.171 c 2.132,1.401 4.886,1.446 7.07,0.121 L 3.444,12.311 C 6.58,10.408 7.578,6.33 5.683,3.197 4.433,1.141 2.244,0 0,0"
             style="fill:#000000;fill-opacity:1;fill-rule:nonzero;stroke:none"
             id="path1033"
             inkscape:connector-curvature="0" />
        </g>
        <g
           id="g1035"
           transform="translate(735.2471,1073.3027)">
          <path
             d="m 0,0 c 1.634,0 3.25,-0.613 4.482,-1.814 5.278,-5.127 12.233,-7.952 19.579,-7.952 9.521,0 18.32,4.772 23.543,12.764 1.824,2.793 5.476,3.731 8.418,2.15 2.017,-1.082 4.201,-1.628 6.502,-1.628 7.601,0 13.784,6.185 13.784,13.783 0,7.603 -6.183,13.785 -13.784,13.785 -2.039,0 -4.003,-0.432 -5.838,-1.295 -3.022,-1.414 -6.623,-0.287 -8.29,2.6 -5.022,8.664 -14.345,14.048 -24.335,14.048 -7.391,0 -14.373,-2.851 -19.659,-8.029 -2.143,-2.092 -5.451,-2.428 -7.969,-0.814 -3.702,2.375 -7.987,3.634 -12.388,3.634 -12.67,0 -22.974,-10.306 -22.974,-22.97 0,-12.668 10.304,-22.975 22.974,-22.975 4.434,0 8.744,1.275 12.461,3.684 C -2.423,-0.338 -1.206,0 0,0 m 24.061,-22.621 c -9.084,0 -17.752,2.959 -24.868,8.412 -4.721,-2.207 -9.881,-3.359 -15.148,-3.359 -19.759,0 -35.829,16.074 -35.829,35.83 0,19.752 16.07,35.826 35.829,35.826 5.218,0 10.331,-1.135 15.017,-3.301 7.139,5.52 15.852,8.51 24.999,8.51 12.77,0 24.789,-6.027 32.485,-16.026 1.942,0.452 3.942,0.672 5.978,0.672 14.689,0 26.638,-11.949 26.638,-26.64 0,-14.688 -11.949,-26.641 -26.638,-26.641 -2.491,0 -4.971,0.356 -7.355,1.037 -7.735,-9.053 -19.022,-14.32 -31.108,-14.32"
             style="fill:#000000;fill-opacity:1;fill-rule:nonzero;stroke:none"
             id="path1037"
             inkscape:connector-curvature="0" />
        </g>
        <g
           id="g1039"
           transform="translate(1961.125,1029)">
          <path
             d="m 0,0 c -1.633,0 -3.25,-0.615 -4.482,-1.816 -5.278,-5.127 -12.233,-7.952 -19.579,-7.952 -9.521,0 -18.32,4.772 -23.543,12.764 -1.824,2.793 -5.476,3.731 -8.417,2.15 -2.018,-1.082 -4.202,-1.628 -6.502,-1.628 -7.602,0 -13.784,6.185 -13.784,13.783 0,7.605 6.182,13.785 13.784,13.785 2.039,0 4.003,-0.432 5.837,-1.295 3.022,-1.414 6.623,-0.287 8.291,2.602 5.022,8.662 14.344,14.046 24.334,14.046 7.391,0 14.373,-2.849 19.659,-8.029 2.144,-2.092 5.451,-2.428 7.97,-0.814 3.702,2.377 7.987,3.636 12.387,3.636 12.67,0 22.975,-10.306 22.975,-22.97 0,-12.67 -10.305,-22.977 -22.975,-22.977 -4.434,0 -8.744,1.276 -12.461,3.684 C 2.424,-0.34 1.207,0 0,0 m -24.061,-22.623 c 9.084,0 17.752,2.959 24.868,8.412 4.722,-2.207 9.881,-3.359 15.148,-3.359 19.76,0 35.83,16.074 35.83,35.832 0,19.752 -16.07,35.824 -35.83,35.824 -5.217,0 -10.33,-1.133 -15.017,-3.301 -7.139,5.52 -15.852,8.512 -24.999,8.512 -12.769,0 -24.789,-6.029 -32.484,-16.027 -1.943,0.453 -3.943,0.671 -5.978,0.671 -14.69,0 -26.639,-11.949 -26.639,-26.64 0,-14.688 11.949,-26.639 26.639,-26.639 2.49,0 4.97,0.354 7.355,1.035 7.734,-9.051 19.022,-14.32 31.107,-14.32"
             style="fill:#000000;fill-opacity:1;fill-rule:nonzero;stroke:none"
             id="path1041"
             inkscape:connector-curvature="0" />
        </g>
        <g
           id="g1043"
           transform="translate(349.3237,821.6074)">
          <path
             d="M 0,0 C -3.663,0 -6.634,2.969 -6.634,6.631 V 201.23 c 0,3.663 2.971,6.633 6.634,6.633 3.665,0 6.634,-2.97 6.634,-6.633 V 6.631 C 6.634,2.969 3.665,0 0,0"
             style="fill:#000000;fill-opacity:1;fill-rule:nonzero;stroke:none"
             id="path1045"
             inkscape:connector-curvature="0" />
        </g>
        <g
           id="g1047"
           transform="translate(382.0137,943.7988)">
          <path
             d="M 0,0 C -1.798,0 -3.592,0.729 -4.899,2.158 L -33.932,33.91 -64.923,2.008 c -2.554,-2.629 -6.754,-2.688 -9.382,-0.135 -2.629,2.555 -2.688,6.752 -0.135,9.383 l 35.895,36.949 c 1.274,1.313 2.987,2.049 4.858,2.012 1.829,-0.028 3.563,-0.809 4.796,-2.154 L 4.893,11.109 C 7.365,8.406 7.178,4.209 4.474,1.736 3.202,0.572 1.599,0 0,0"
             style="fill:#000000;fill-opacity:1;fill-rule:nonzero;stroke:none"
             id="path1049"
             inkscape:connector-curvature="0" />
        </g>
        <g
           id="g1051"
           transform="translate(382.0137,902.627)">
          <path
             d="m 0,0 c -1.798,0 -3.592,0.725 -4.899,2.154 l -29.033,31.754 -30.991,-31.9 c -2.554,-2.629 -6.754,-2.688 -9.382,-0.133 -2.629,2.549 -2.688,6.754 -0.135,9.381 l 35.895,36.947 c 1.274,1.311 2.987,2.059 4.858,2.01 1.829,-0.025 3.563,-0.805 4.796,-2.15 L 4.893,11.107 C 7.365,8.404 7.178,4.207 4.474,1.736 3.202,0.57 1.599,0 0,0"
             style="fill:#000000;fill-opacity:1;fill-rule:nonzero;stroke:none"
             id="path1053"
             inkscape:connector-curvature="0" />
        </g>
        <g
           id="g1055"
           transform="translate(382.0137,982.8613)">
          <path
             d="M 0,0 C -1.798,0 -3.592,0.725 -4.899,2.156 L -33.932,33.914 -64.923,2.012 c -2.554,-2.629 -6.754,-2.69 -9.382,-0.135 -2.629,2.553 -2.688,6.752 -0.135,9.381 l 35.895,36.949 c 1.274,1.311 2.987,2.041 4.858,2.012 1.829,-0.03 3.563,-0.811 4.796,-2.158 L 4.893,11.111 C 7.365,8.406 7.178,4.209 4.474,1.734 3.202,0.572 1.599,0 0,0"
             style="fill:#000000;fill-opacity:1;fill-rule:nonzero;stroke:none"
             id="path1057"
             inkscape:connector-curvature="0" />
        </g>
        <g
           id="g1059"
           transform="translate(255.3818,927.1172)">
          <path
             d="m 0,0 c -9.372,0 -18.321,3.055 -25.66,8.682 -4.877,-2.278 -10.201,-3.467 -15.639,-3.467 -20.389,0 -36.975,16.59 -36.975,36.978 0,20.385 16.586,36.975 36.975,36.975 5.39,0 10.664,-1.172 15.504,-3.408 7.363,5.695 16.358,8.783 25.795,8.783 15.029,0 29.052,-8.09 36.594,-21.117 1.837,-3.172 0.756,-7.231 -2.414,-9.067 -3.169,-1.838 -7.229,-0.755 -9.066,2.418 C 19.933,65.721 10.31,71.275 0,71.275 c -7.627,0 -14.832,-2.941 -20.286,-8.287 -2.21,-2.158 -5.627,-2.506 -8.227,-0.842 -3.819,2.454 -8.241,3.754 -12.786,3.754 -13.072,0 -23.705,-10.636 -23.705,-23.707 0,-13.074 10.633,-23.711 23.705,-23.711 4.58,0 9.026,1.315 12.864,3.801 2.596,1.68 6.01,1.344 8.231,-0.81 5.446,-5.291 12.621,-8.205 20.204,-8.205 9.825,0 18.909,4.923 24.297,13.171 2.005,3.069 6.12,3.928 9.183,1.926 3.065,-2.002 3.929,-6.113 1.926,-9.181 C 27.559,7.172 14.324,0 0,0"
             style="fill:#000000;fill-opacity:1;fill-rule:nonzero;stroke:none"
             id="path1061"
             inkscape:connector-curvature="0" />
        </g>
        <g
           id="g1063"
           transform="translate(1806.9346,804.9082)">
          <path
             d="m 0,0 c -3.037,0 -5.502,2.463 -5.502,5.5 v 161.413 c 0,3.036 2.465,5.502 5.502,5.502 3.041,0 5.504,-2.466 5.504,-5.502 V 5.5 C 5.504,2.463 3.041,0 0,0"
             style="fill:#000000;fill-opacity:1;fill-rule:nonzero;stroke:none"
             id="path1065"
             inkscape:connector-curvature="0" />
        </g>
        <g
           id="g1067"
           transform="translate(1834.0508,906.2617)">
          <path
             d="M 0,0 C -1.491,0 -2.979,0.604 -4.063,1.79 L -28.146,28.127 -53.853,1.664 c -2.117,-2.178 -5.601,-2.228 -7.779,-0.111 -2.181,2.12 -2.229,5.601 -0.113,7.783 l 29.773,30.648 c 1.057,1.088 2.477,1.7 4.029,1.668 1.517,-0.023 2.958,-0.67 3.98,-1.786 L 4.058,9.215 C 6.108,6.973 5.953,3.491 3.711,1.439 2.655,0.475 1.326,0 0,0"
             style="fill:#000000;fill-opacity:1;fill-rule:nonzero;stroke:none"
             id="path1069"
             inkscape:connector-curvature="0" />
        </g>
        <g
           id="g1071"
           transform="translate(1834.0508,872.1113)">
          <path
             d="M 0,0 C -1.491,0 -2.979,0.601 -4.063,1.787 L -28.146,28.125 -53.853,1.665 c -2.117,-2.181 -5.601,-2.229 -7.779,-0.109 -2.181,2.112 -2.229,5.6 -0.113,7.78 l 29.773,30.646 c 1.057,1.088 2.477,1.707 4.029,1.668 1.517,-0.021 2.958,-0.668 3.98,-1.785 L 4.058,9.214 C 6.108,6.971 5.953,3.488 3.711,1.439 2.655,0.474 1.326,0 0,0"
             style="fill:#000000;fill-opacity:1;fill-rule:nonzero;stroke:none"
             id="path1073"
             inkscape:connector-curvature="0" />
        </g>
        <g
           id="g1075"
           transform="translate(1834.0508,938.6621)">
          <path
             d="M 0,0 C -1.491,0 -2.979,0.602 -4.063,1.788 L -28.146,28.131 -53.853,1.668 c -2.117,-2.179 -5.601,-2.229 -7.779,-0.111 -2.181,2.118 -2.229,5.601 -0.113,7.781 l 29.773,30.648 c 1.057,1.086 2.477,1.694 4.029,1.668 1.517,-0.023 2.958,-0.672 3.98,-1.79 L 4.058,9.217 C 6.108,6.973 5.953,3.491 3.711,1.439 2.655,0.477 1.326,0 0,0"
             style="fill:#000000;fill-opacity:1;fill-rule:nonzero;stroke:none"
             id="path1077"
             inkscape:connector-curvature="0" />
        </g>
        <g
           id="g1079"
           transform="translate(1694.7588,896.75)">
          <path
             d="m 0,0 c -16.913,0 -30.67,13.762 -30.67,30.673 0,16.907 13.757,30.669 30.67,30.669 4.47,0 8.845,-0.973 12.859,-2.827 6.108,4.725 13.569,7.286 21.397,7.286 12.465,0 24.098,-6.711 30.353,-17.517 1.523,-2.632 0.627,-5.997 -2.002,-7.519 -2.628,-1.526 -5.996,-0.628 -7.519,2.003 -4.301,7.42 -12.282,12.027 -20.832,12.027 -6.326,0 -12.302,-2.441 -16.826,-6.873 C 15.598,46.131 12.763,45.844 10.604,47.225 7.438,49.258 3.77,50.337 0,50.337 c -10.842,0 -19.663,-8.822 -19.663,-19.664 0,-10.846 8.821,-19.667 19.663,-19.667 3.8,0 7.486,1.091 10.67,3.152 2.154,1.394 4.985,1.115 6.827,-0.672 4.517,-4.389 10.469,-6.805 16.759,-6.805 8.15,0 15.683,4.083 20.153,10.924 1.662,2.545 5.076,3.258 7.616,1.598 2.545,-1.661 3.26,-5.071 1.598,-7.617 C 57.115,1.624 46.137,-4.324 34.256,-4.324"
             style="fill:#000000;fill-opacity:1;fill-rule:nonzero;stroke:none"
             id="path1081"
             inkscape:connector-curvature="0" />
        </g>
        <g
           id="g1083"
           transform="translate(2201.0391,968.8105)">
          <path
             d="m 0,0 c -22.242,0 -40.34,18.1 -40.34,40.342 0,22.241 18.098,40.34 40.34,40.34 22.242,0 40.34,-18.099 40.34,-40.34 C 40.34,18.1 22.242,0 0,0 m 0,70.597 c -16.686,0 -30.256,-13.57 -30.256,-30.255 0,-16.686 13.57,-30.255 30.256,-30.255 16.686,0 30.256,13.569 30.256,30.255 0,16.685 -13.57,30.255 -30.256,30.255"
             style="fill:#000000;fill-opacity:1;fill-rule:nonzero;stroke:none"
             id="path1085"
             inkscape:connector-curvature="0" />
        </g>
        <g
           id="g1087"
           transform="translate(2201.0391,1054.5342)">
          <path
             d="m 0,0 c -2.788,0 -5.044,2.261 -5.044,5.044 v 10.084 c 0,2.783 2.256,5.043 5.044,5.043 2.787,0 5.044,-2.26 5.044,-5.043 V 5.044 C 5.044,2.261 2.787,0 0,0"
             style="fill:#000000;fill-opacity:1;fill-rule:nonzero;stroke:none"
             id="path1089"
             inkscape:connector-curvature="0" />
        </g>
        <g
           id="g1091"
           transform="translate(2201.0391,943.5986)">
          <path
             d="m 0,0 c -2.788,0 -5.044,2.26 -5.044,5.042 v 10.086 c 0,2.783 2.256,5.043 5.044,5.043 2.787,0 5.044,-2.26 5.044,-5.043 V 5.042 C 5.044,2.26 2.787,0 0,0"
             style="fill:#000000;fill-opacity:1;fill-rule:nonzero;stroke:none"
             id="path1093"
             inkscape:connector-curvature="0" />
        </g>
        <g
           id="g1095"
           transform="translate(2261.5508,1004.1094)">
          <path
             d="m 0,0 h -10.088 c -2.787,0 -5.04,2.26 -5.04,5.043 0,2.783 2.253,5.043 5.04,5.043 H 0 c 2.788,0 5.042,-2.26 5.042,-5.043 C 5.042,2.26 2.788,0 0,0"
             style="fill:#000000;fill-opacity:1;fill-rule:nonzero;stroke:none"
             id="path1097"
             inkscape:connector-curvature="0" />
        </g>
        <g
           id="g1099"
           transform="translate(2150.6143,1004.1094)">
          <path
             d="m 0,0 h -10.085 c -2.789,0 -5.044,2.26 -5.044,5.043 0,2.783 2.255,5.043 5.044,5.043 H 0 c 2.788,0 5.042,-2.26 5.042,-5.043 C 5.042,2.26 2.788,0 0,0"
             style="fill:#000000;fill-opacity:1;fill-rule:nonzero;stroke:none"
             id="path1101"
             inkscape:connector-curvature="0" />
        </g>
        <g
           id="g1103"
           transform="translate(2165.3809,1039.7676)">
          <path
             d="m 0,0 c -1.29,0 -2.581,0.494 -3.564,1.477 l -7.13,7.129 c -1.972,1.973 -1.972,5.16 0,7.13 1.972,1.972 5.158,1.972 7.13,0 L 3.565,8.606 C 5.537,6.635 5.537,3.448 3.565,1.477 2.583,0.494 1.291,0 0,0"
             style="fill:#000000;fill-opacity:1;fill-rule:nonzero;stroke:none"
             id="path1105"
             inkscape:connector-curvature="0" />
        </g>
        <g
           id="g1107"
           transform="translate(2243.8271,961.3203)">
          <path
             d="m 0,0 c -1.291,0 -2.583,0.496 -3.565,1.479 l -7.131,7.13 c -1.971,1.973 -1.971,5.159 0,7.13 1.972,1.971 5.16,1.971 7.131,0 l 7.13,-7.13 c 1.971,-1.972 1.971,-5.16 0,-7.13 C 2.581,0.496 1.29,0 0,0"
             style="fill:#000000;fill-opacity:1;fill-rule:nonzero;stroke:none"
             id="path1109"
             inkscape:connector-curvature="0" />
        </g>
        <g
           id="g1111"
           transform="translate(2236.6973,1039.7676)">
          <path
             d="m 0,0 c -1.292,0 -2.583,0.494 -3.566,1.477 -1.972,1.971 -1.972,5.158 0,7.129 l 7.13,7.13 c 1.972,1.972 5.159,1.972 7.131,0 1.971,-1.97 1.971,-5.157 0,-7.13 L 3.564,1.477 C 2.581,0.494 1.29,0 0,0"
             style="fill:#000000;fill-opacity:1;fill-rule:nonzero;stroke:none"
             id="path1113"
             inkscape:connector-curvature="0" />
        </g>
        <g
           id="g1115"
           transform="translate(2158.251,961.3203)">
          <path
             d="m 0,0 c -1.29,0 -2.582,0.496 -3.564,1.479 -1.972,1.97 -1.972,5.158 0,7.13 l 7.128,7.13 c 1.972,1.971 5.16,1.971 7.13,0 1.973,-1.971 1.973,-5.157 0,-7.13 L 3.564,1.479 C 2.581,0.496 1.291,0 0,0"
             style="fill:#000000;fill-opacity:1;fill-rule:nonzero;stroke:none"
             id="path1117"
             inkscape:connector-curvature="0" />
        </g>
      </g>
    </g>
  </g>
</svg>
