<?xml version="1.0" encoding="UTF-8" standalone="no"?>
<!-- Created with Inkscape (http://www.inkscape.org/) -->

<svg
   xmlns:dc="http://purl.org/dc/elements/1.1/"
   xmlns:cc="http://creativecommons.org/ns#"
   xmlns:rdf="http://www.w3.org/1999/02/22-rdf-syntax-ns#"
   xmlns:svg="http://www.w3.org/2000/svg"
   xmlns="http://www.w3.org/2000/svg"
   xmlns:sodipodi="http://sodipodi.sourceforge.net/DTD/sodipodi-0.dtd"
   xmlns:inkscape="http://www.inkscape.org/namespaces/inkscape"
   width="329.31805mm"
   height="105.40278mm"
   viewBox="0 0 329.31805 105.40278"
   version="1.1"
   id="svg838"
   inkscape:version="0.92.3 (2405546, 2018-03-11)"
   sodipodi:docname="impa.svg">
  <defs
     id="defs832" />
  <sodipodi:namedview
     id="base"
     pagecolor="#ffffff"
     bordercolor="#666666"
     borderopacity="1.0"
     inkscape:pageopacity="0.0"
     inkscape:pageshadow="2"
     inkscape:zoom="0.35"
     inkscape:cx="1032.3334"
     inkscape:cy="-503.67078"
     inkscape:document-units="mm"
     inkscape:current-layer="layer1"
     showgrid="false"
     fit-margin-top="0"
     fit-margin-left="0"
     fit-margin-right="0"
     fit-margin-bottom="0"
     inkscape:window-width="3840"
     inkscape:window-height="2034"
     inkscape:window-x="0"
     inkscape:window-y="60"
     inkscape:window-maximized="1" />
  <metadata
     id="metadata835">
    <rdf:RDF>
      <cc:Work
         rdf:about="">
        <dc:format>image/svg+xml</dc:format>
        <dc:type
           rdf:resource="http://purl.org/dc/dcmitype/StillImage" />
        <dc:title></dc:title>
      </cc:Work>
    </rdf:RDF>
  </metadata>
  <g
     inkscape:label="Layer 1"
     inkscape:groupmode="layer"
     id="layer1"
     transform="translate(354.40308,89.832343)">
    <path
       style="fill:#000000;stroke-width:0.35277778"
       d="m -343.94741,15.127817 c -3.95774,-0.89887 -7.25262,-2.39298 -9.39733,-4.26136 l -1.05834,-0.9219644 0.0529,-4.115515 c 0.0877,-6.82159299 1.3535,-15.604252 4.41843,-30.6564686 l 1.81264,-8.902094 0.99343,1.350854 c 1.76567,2.400948 4.79584,4.077697 9.73299,5.385766 3.51226,0.93055 14.83299,1.321559 20.08775,0.693809 13.48975,-1.61153 21.2803,-3.132432 40.86574,-7.977979 11.03979,-2.731312 21.46681,-4.390094 34.21943,-5.443799 2.52236,-0.208418 5.61798,-0.471901 6.87917,-0.585523 1.26119,-0.113623 2.21369,-0.13312 2.11667,-0.04332 -0.097,0.08979 -2.00203,1.086932 -4.23334,2.215869 -6.34584,3.210677 -14.29647,8.660035 -21.65879,14.844922 -11.8338,9.941282 -17.92681,14.3745076 -28.61204,20.8179316 -14.98092,9.033828 -26.79343,14.1182714 -39.33473,16.9307914 -5.09931,1.14358 -13.35296,1.47016 -16.8846,0.66808 z m 98.37627,-4.10356 c -8.33565,-0.73303 -18.87501,-2.2266544 -28.575,-4.0496594 -7.30949,-1.373744 -16.01309,-3.339862 -16.38652,-3.701654 -0.20995,-0.203438 -0.17293,-0.324723 0.0991,-0.324723 0.53329,0 8.27019,-4.742603 13.99439,-8.57832 6.84237,-4.5850176 11.61672,-8.2596836 21.51341,-16.5582656 l 1.15834,-0.971298 4.67251,1.767718 c 8.59306,3.25097 16.21314,4.860589 24.51407,5.178274 11.1198,0.425556 20.34334,-1.689365 28.02655,-6.426382 1.36236,-0.839952 2.55664,-1.398355 2.65395,-1.240902 0.0973,0.157457 0.27657,1.614993 0.39833,3.238979 0.26239,3.499432 -0.46,8.250635 -1.79287,11.7917116 -1.75254,4.656085 -5.91793,10.69803 -10.10361,14.655403 -1.90188,1.798162 -2.41197,2.071767 -5.69675,3.055779 -6.73277,2.0168894 -11.71241,2.5678894 -22.64857,2.5059994 -4.66175,-0.0265 -9.98405,-0.18058 -11.82732,-0.34266 z m 167.812002,-0.895535 c -0.1334,-0.1334034 -0.24254,-2.8354604 -0.24254,-6.0045864 0,-5.526855 0.0288,-5.762043 0.70556,-5.762043 0.40622,0 0.70554,0.235188 0.70554,0.554381 0,0.50374001 0.0506,0.50379301 0.55385,0 1.2455,-1.245526 3.32153,-1.132417 4.95168,0.26979601 0.76353,0.656748 0.98332,1.199568 1.10604,2.73150499 0.19296,2.409111 -0.28493,3.65678 -1.75207,4.574381 -1.31967,0.825368 -3.13233,0.731467 -4.17986,-0.216535 -0.61619,-0.557662 -0.64855,-0.48723 -0.74999,1.632612 -0.0975,2.037503 -0.48911,2.8290544 -1.09821,2.2199604 z m 5.2609,-4.6282774 c 0.6595,-0.440346 1.19933,-1.747943 1.19933,-2.905019 0,-1.157049 -0.53983,-2.46464699 -1.19933,-2.90501899 -0.2135,-0.142531 -0.97941,-0.261594 -1.70201,-0.264584 -1.10075,-0.0045 -1.40119,0.163434 -1.85209,1.035421 -0.63915,1.23597399 -0.69551,2.94007599 -0.13263,4.00946899 0.54477,1.034997 0.9861,1.288918 2.24022,1.288918 0.58209,0 1.23301,-0.116628 1.44651,-0.259186 z m -56.656212,1.443911 c -1.56983,-0.61603 -1.7639,-1.158822 -1.7639,-4.93276 0,-3.414315 0.0455,-3.649503 0.70557,-3.649503 0.65497,0 0.70553,0.235188 0.70553,3.280833 0,3.582855 0.24207,4.1275 1.83447,4.1275 1.83726,0 2.39887,-1.032378 2.39887,-4.409705 0,-2.76344 0.0554,-2.998628 0.70556,-2.998628 0.66635,0 0.70557,0.235188 0.70557,4.233333 0,3.998145 -0.0392,4.233333 -0.70557,4.233333 -0.38806,0 -0.68675,-0.119062 -0.66379,-0.264583 0.11711,-0.741627 -0.10424,-0.846561 -0.68228,-0.323453 -0.71604,0.648017 -2.43213,1.020709 -3.24003,0.703633 z m 14.46387,-0.01323 c -1.04219,-0.383196 -1.76387,-1.285955 -1.76387,-2.206414 0,-0.941043 0.7484,-2.286846 1.29447,-2.327777 0.16116,-0.01217 1.2151,-0.223679 2.34209,-0.470244 1.92038,-0.420159 2.04224,-0.507392 1.94027,-1.38914199 -0.099,-0.85643 -0.26164,-0.950622 -1.81215,-1.049523 -1.47125,-0.09385 -1.72924,-0.0098 -1.89323,0.617352 -0.19333,0.739246 -1.51868,1.04473399 -1.51868,0.35007 0,-1.49592701 2.30177,-2.68861601 4.42137,-2.29097401 2.00208,0.375603 2.2814,0.92120001 2.2814,4.456033 0,2.657819 0.0886,3.149786 0.56692,3.149786 0.372,0 0.49329,0.191849 0.35277,0.558032 -0.11777,0.306891 -0.21413,0.624391 -0.21413,0.705538 0,0.429895 -1.42422,0.06146 -1.70553,-0.441192 -0.30768,-0.549805 -0.41153,-0.549805 -1.57014,0 -1.27966,0.607218 -1.81092,0.673311 -2.72156,0.338455 z m 3.0965,-1.710003 c 0.50945,-0.356817 0.78406,-0.914294 0.78406,-1.591653 0,-1.027219 -0.022,-1.039152 -1.49931,-0.813594 -0.8246,0.125915 -1.7771,0.371501 -2.11667,0.545756 -0.60364,0.309774 -0.8492,1.70643 -0.38216,2.173473 0.43455,0.434551 2.42268,0.240347 3.21408,-0.313982 z m 11.12943,1.445525 c -2.1178,-0.9212 -3.08139,-3.609763 -2.11913,-5.91277599 0.61902,-1.481508 1.7707,-2.34111301 3.516102,-2.62434901 1.05667,-0.171477 1.41412,-0.02998 2.49159,0.98626101 0.82645,0.779489 1.33712,1.640231 1.48875,2.50936099 l 0.23085,1.322917 h -3.41442 c -3.377382,0 -3.411802,0.0087 -3.172542,0.79375 0.67371,2.210752 3.230752,2.8117 4.712502,1.107545 0.53549,-0.615897 0.91794,-0.803698 1.15461,-0.567028 0.56295,0.562954 -0.32348,1.837663 -1.66881,2.399771 -1.45444,0.607721 -1.79059,0.606107 -3.219502,-0.01535 z m 3.765742,-5.457269 c 0,-1.03081699 -0.97184,-1.78908599 -2.29304,-1.78908599 -1.321222,0 -2.293072,0.758269 -2.293072,1.78908599 0,0.602191 0.2635,0.680349 2.293072,0.680349 2.02954,0 2.29304,-0.07816 2.29304,-0.680349 z m 37.75212,5.371544 c -1.51024,-0.778854 -2.11026,-1.910133 -2.11404,-3.98563 -0.006,-3.50284599 3.0571,-5.573448 5.99675,-4.053285 0.90064,0.46572001 1.75683,1.48420701 1.75683,2.08981201 0,0.48818199 -1.36202,0.133006 -1.94027,-0.505963 -0.63894,-0.706041 -2.43948,-0.95033 -3.21037,-0.435584 -1.14755,0.76626 -1.54017,3.18214399 -0.7861,4.83716599 0.74144,1.62724 3.4998,1.626208 4.24148,-0.0026 0.42997,-0.943636 1.69526,-1.203854 1.69526,-0.348615 0,0.287973 -0.43656,1.007851 -0.97012,1.59975 -1.23928,1.374696 -2.98116,1.674601 -4.66942,0.803937 z m 8.22026,0.256725 c -1.05399,-0.440372 -1.61372,-1.612238 -1.34797,-2.822231 0.16605,-0.755967 0.57055,-1.147656 1.61814,-1.566809 0.76819,-0.307393 1.76006,-0.55888 2.20411,-0.55888 0.44408,0 1.11551,-0.228811 1.49217,-0.508502 1.05786,-0.78552199 0.26612,-1.75786599 -1.54083,-1.89227399 -1.15033,-0.08559 -1.5413,0.04138 -1.901,0.617352 -0.56303,0.90156799 -1.34144,0.94464199 -1.34144,0.07422 0,-1.78477301 3.97201,-2.89097001 5.61203,-1.56297301 0.74795,0.60565801 0.85896,1.03388601 0.99292,3.829129 0.083,1.730984 0.29763,3.200136 0.4771,3.264826 0.51919,0.187114 0.37812,1.021742 -0.2109,1.247775 -0.29543,0.113374 -0.83402,-0.09078 -1.19689,-0.453628 -0.54782,-0.54782 -0.74102,-0.58076 -1.13856,-0.194125 -0.64233,0.624761 -2.76429,0.924957 -3.71888,0.526124 z m 3.69081,-1.616525 c 0.50824,-0.355996 0.78404,-0.914426 0.78404,-1.5875 0,-1.172368 -0.0201,-1.177872 -2.42316,-0.662516 -1.86444,0.399838 -2.38686,1.016106 -1.7965,2.11918 0.45157,0.843783 2.31635,0.914797 3.43562,0.130836 z m 6.14558,1.374617 c -0.64066,-0.318188 -1.39472,-1.023091 -1.67568,-1.566413 -1.12345,-2.172547 -0.26914,-5.66390899 1.63531,-6.683163 0.96514,-0.51652 3.01868,-0.208333 3.89479,0.58457 0.64093,0.58002001 0.66181,0.52482801 0.66181,-1.748816 0,-2.11254 0.0707,-2.347728 0.70556,-2.347728 0.67789,0 0.70557,0.235188 0.70557,5.99720501 0,5.76204299 -0.0275,5.99723099 -0.70557,5.99723099 -0.42135,0 -0.70556,-0.235188 -0.70556,-0.583856 0,-0.528294 -0.0587,-0.532024 -0.61736,-0.03924 -0.99091,0.874104 -2.60029,1.035183 -3.89887,0.390208 z m 3.81947,-1.795595 c 0.91461,-1.158981 0.81264,-3.571716 -0.19812,-4.68860199 -0.74472,-0.822907 -3.04212,-0.944218 -3.66508,-0.193569 -0.54663,0.658627 -0.87313,2.77132499 -0.59783,3.86823499 0.54398,2.16744 3.09351,2.746904 4.46103,1.013936 z m 5.63565,2.130981 c -1.63499,-0.60116 -2.28639,-2.440438 -1.32291,-3.735309 0.24254,-0.325966 1.52069,-0.857382 2.84033,-1.180914 2.25038,-0.551736 2.39278,-0.645081 2.29303,-1.50323099 -0.0932,-0.802375 -0.28895,-0.928264 -1.59038,-1.02272 -1.18629,-0.08612 -1.57501,0.03778 -1.93696,0.617352 -0.51597,0.826215 -1.69421,0.97999099 -1.69421,0.221139 0,-0.654156 0.94282,-1.58625601 2.01798,-1.99503801 1.23555,-0.469741 2.45946,-0.397536 3.644,0.215001 l 1.04079,0.53821501 V 2.4279696 c 0,2.735765 0.096,3.342323 0.52917,3.342323 0.29104,0 0.52916,0.221138 0.52916,0.491437 0,0.270272 -0.23812,0.582797 -0.52916,0.694478 -0.70655,0.271119 -1.5875,-0.09319 -1.5875,-0.656458 0,-0.330888 -0.3538,-0.273023 -1.30929,0.214128 -1.32752,0.676804 -1.96919,0.768376 -2.92405,0.417248 z m 3.32621,-1.715188 c 0.30491,-0.304906 0.55436,-1.02116 0.55436,-1.591681 0,-1.02108 -0.0233,-1.033727 -1.49932,-0.808381 -0.82462,0.125915 -1.77712,0.371501 -2.11666,0.545756 -0.70885,0.363749 -0.83418,1.909604 -0.1764,2.175034 0.9457,0.381582 2.71047,0.206771 3.23802,-0.320728 z M -141.50168,0.78932661 V -5.2499734 l 3.26318,0.150125 c 3.46599,0.159464 4.54385,0.567452 5.17838,1.960086 0.68034,1.493203 0.45156,2.89345701 -0.65331,3.99830401 -0.9583,0.95829499 -1.22021,1.03121399 -3.70417,1.03121399 h -2.67298 v 2.469435 c 0,2.234248 -0.0672,2.469436 -0.70554,2.469436 -0.6781,0 -0.70556,-0.235188 -0.70556,-6.03929999 z m 6.52655,-0.714084 c 0.95213,-1.005231 0.9651,-2.01480201 0.0378,-2.94211401 -0.75277,-0.752766 -1.21227,-0.887835 -3.02054,-0.887835 h -2.1327 v 2.34135 2.34137801 l 2.33108,-0.18714 c 1.2821,-0.102896 2.53506,-0.402458 2.78437,-0.665639 z m 13.22901,2.52005099 c 0,-3.998146 0.0392,-4.233334 0.70554,-4.233334 0.48271,0 0.70556,0.235188 0.70556,0.74464401 v 0.744643 l 0.61736,-0.729589 c 0.33956,-0.40129301 1.05394,-0.83296101 1.5875,-0.95927301 0.81526,-0.193013 0.97014,-0.115305 0.97014,0.486754 0,0.50837001 -0.36496,0.83690401 -1.25661,1.13117301 -1.55601,0.51353 -1.91839,1.38279199 -1.91839,4.60184499 0,2.211282 -0.0678,2.44647 -0.70556,2.44647 -0.66635,0 -0.70554,-0.235188 -0.70554,-4.233333 z m 32.419902,2.557647 c 0.36277,-0.921623 1.41825,-3.628416 2.34548,-6.01508999 1.55324,-3.99796001 1.75268,-4.33107001 2.535,-4.23333301 0.74827,0.09348 1.11778,0.797189 3.11208,5.92690401 1.24465,3.20145899 2.26539,5.86052099 2.26833,5.90901899 0.003,0.0485 -0.37881,0.08819 -0.84828,0.08819 -0.71102,0 -0.95145,-0.29464 -1.43947,-1.763871 l -0.58587,-1.763898 h -2.58204 -2.58207 l -0.63428,1.763898 c -0.50986,1.417849 -0.79262,1.763871 -1.44137,1.763871 h -0.80712 z m 6.73844,-3.397594 c 0,-0.206771 -1.80864,-4.965779 -1.93572,-5.093414 -0.1057,-0.106177 -1.21256,2.70269201 -1.74726,4.434073 -0.23392,0.757449 -0.15534,0.79375 1.71892,0.79375 1.08021,0 1.96406,-0.06048 1.96406,-0.134409 z m 14.63473,4.632325 c -0.0879,-0.242543 -0.1226,-2.899463 -0.0771,-5.90425599 0.0739,-4.88418201 0.14809,-5.47587001 0.70001,-5.58212601 0.56851,-0.109432 0.61738,0.357902 0.61738,5.90425601 0,5.17352999 -0.0762,6.02308099 -0.54026,6.02308099 -0.2971,0 -0.61214,-0.198438 -0.70001,-0.440955 z m 3.7097,-3.792378 c 0,-3.998146 0.0392,-4.233334 0.70557,-4.233334 0.66635,0 0.70553,0.235188 0.70553,4.233334 0,3.998145 -0.0392,4.233333 -0.70553,4.233333 -0.66638,0 -0.70557,-0.235188 -0.70557,-4.233333 z M -197.38957,1.7828906 c 2.55826,-3.391059 5.55226,-9.56482 6.48341,-13.3689986 0.96483,-3.941763 1.04587,-10.388227 0.17502,-13.922476 -2.42994,-9.861804 -10.31121,-16.417039 -22.03167,-18.324785 -6.56828,-1.069131 -25.68596,-0.265557 -38.78831,1.630389 -4.20148,0.607965 -4.22251,0.430377 -0.18434,-1.555935 2.12921,-1.047319 4.90315,-2.380075 6.16432,-2.961683 1.26118,-0.581607 3.88056,-1.803233 5.82083,-2.714725 1.94029,-0.91149 4.40092,-2.060858 5.46806,-2.55415 1.06715,-0.493289 4.0834,-1.920079 6.70277,-3.17064 9.41695,-4.495892 19.61383,-9.227698 21.41085,-9.93557 5.60454,-2.207693 14.03427,-3.491907 18.88464,-2.876941 3.92279,0.497358 5.75844,1.015598 8.91701,2.517418 6.07063,2.886421 11.10329,8.470897 13.96,15.490624 1.21439,2.984095 1.90714,7.923051 1.5797,11.262479 -1.40865,14.366256 -7.8599,25.014965 -20.61266,34.0241326 -3.28176,2.318385 -12.82512,7.845293 -14.92104,8.641292 -0.84948,0.322633 -0.75222,0.104299 0.97141,-2.180431 z m 133.146222,-6.066764 c 0,-0.646748 0.18815,-0.881936 0.70557,-0.881936 0.51741,0 0.70553,0.235188 0.70553,0.881936 0,0.646774 -0.18812,0.881962 -0.70553,0.881962 -0.51742,0 -0.70557,-0.235188 -0.70557,-0.881962 z m -77.015792,-6.7542036 c -0.1334,-0.133403 -0.24254,-2.845514 -0.24254,-6.026944 v -5.784381 l 1.10082,0.110548 c 1.07159,0.107611 1.14856,0.239048 2.89746,4.948557 1.04272,2.807944 1.90613,4.660742 2.05766,4.415579 0.14359,-0.232331 1.01002,-2.449116 1.9254,-4.926198 1.59504,-4.316293 1.70587,-4.503782 2.66232,-4.503782 0.70045,0 1.00962,0.18407 1.03698,0.617362 0.099,1.567585 -0.0827,11.185586 -0.21371,11.316634 -0.0812,0.08118 -0.39259,0.05361 -0.69199,-0.06128 -0.45177,-0.173355 -0.54692,-1.006078 -0.55933,-4.894289 l -0.0148,-4.685374 -1.76946,4.586102 c -0.97319,2.522379 -1.8924,4.710377 -2.04274,4.862275 -0.68792,0.695087 -1.39938,-0.454502 -3.0371,-4.907307 l -1.7639,-4.795917 -0.17637,4.861322 c -0.16362,4.509347 -0.42746,5.608188 -1.16858,4.86709 z m 14.92689,-0.01693 c -0.80301,-0.286994 -1.4111,-1.205627 -1.4111,-2.131695 0,-1.339956 1.46002,-2.497773 3.48911,-2.766933 1.93392,-0.256567 2.64846,-0.783088 2.29889,-1.694048 -0.47974,-1.250183 -3.44128,-1.145884 -3.84799,0.135519 -0.26239,0.82677 -1.58724,0.959935 -1.58724,0.159544 0,-0.299852 0.38968,-0.934852 0.86593,-1.411102 0.70371,-0.703739 1.21967,-0.865928 2.75479,-0.865928 2.91433,0 3.1955,0.364357 3.3706,4.368032 0.0816,1.866212 0.28821,3.393096 0.45911,3.393096 0.17087,0 0.3107,0.238125 0.3107,0.529167 0,0.697786 -1.71844,0.705326 -1.98575,0.0087 -0.17603,-0.458734 -0.31904,-0.458734 -1.20613,0 -1.00182,0.518054 -2.50285,0.635873 -3.51092,0.275617 z m 3.7202,-1.679443 c 0.47625,-0.47625 0.86593,-1.259999 0.86593,-1.741699 0,-0.813118 -0.0947,-0.861192 -1.32291,-0.67183 -1.90328,0.293449 -3.26322,1.068546 -3.26322,1.859862 0,1.516062 2.40057,1.873329 3.7202,0.553667 z m 5.89302,1.678808 c -0.57733,-0.113771 -0.80122,-0.414258 -0.82106,-1.102016 -0.0151,-0.520065 -0.0499,-2.056845 -0.0776,-3.41503 -0.044,-2.158365 -0.14031,-2.493619 -0.76459,-2.661312 -1.03751,-0.278685 -1.12371,-1.314503 -0.12123,-1.45661 0.64301,-0.09115 0.81436,-0.337027 0.81436,-1.168771 0,-0.722632 0.1938,-1.090705 0.61735,-1.172384 0.49501,-0.09546 0.61738,0.130802 0.61738,1.141534 0,1.109451 0.10573,1.260581 0.88193,1.260581 1.17171,0 1.16126,0.974804 -0.0135,1.269656 -0.87818,0.220424 -0.89358,0.280379 -0.79375,3.093534 0.0955,2.69293 0.15169,2.875836 0.91615,2.984183 0.53779,0.07623 0.77605,0.31451 0.70151,0.701516 -0.12059,0.62619 -0.68082,0.776526 -1.95686,0.525119 z m 5.24229,-0.246857 c -1.20544,-0.668125 -1.77586,-1.898967 -1.79022,-3.862996 -0.0214,-2.94206 1.40229,-4.464155 4.17594,-4.464155 0.93298,0 1.54996,0.238204 2.05597,0.79375 0.96396,1.058333 1.5167,2.174848 1.5167,3.06361 0,0.654764 -0.22386,0.732552 -2.20485,0.766127 -1.21269,0.02064 -2.65324,0.0074 -3.20127,-0.02934 -0.89112,-0.05966 -0.98431,0.03522 -0.88194,0.897864 0.25209,2.124657 3.00839,2.87065 4.43791,1.201102 0.32771,-0.382746 0.79867,-0.69588 1.04661,-0.69588 0.54986,0 0.55446,0.09197 0.0591,1.179221 -0.70604,1.549559 -3.41545,2.147517 -5.21393,1.150673 z m 4.54729,-5.302937 c 0,-0.696913 -1.69564,-1.965881 -2.62689,-1.965881 -0.89048,0 -2.31201,1.20142 -2.31201,1.954027 0,0.402961 0.53882,0.515435 2.46944,0.515435 1.90407,0 2.46946,-0.115305 2.46946,-0.503581 z m 2.8222,1.411393 c 0,-4.200419 0.0374,-4.435607 0.70557,-4.435607 0.40338,0 0.70556,0.235188 0.70556,0.549169 0,0.497046 0.0744,0.497046 0.78404,0 1.0164,-0.711888 3.046362,-0.703898 3.840882,0.01508 0.57153,0.517234 0.69077,0.517234 1.4292,0 1.10135,-0.771419 3.21323,-0.72816 3.94536,0.08086 0.46709,0.516122 0.58386,1.403826 0.58386,4.439099 0,2.877662 -0.10653,3.75883 -0.44099,3.648446 -0.29543,-0.09753 -0.49919,-1.276218 -0.61735,-3.571134 -0.1847,-3.586692 -0.42383,-4.086384 -1.96106,-4.097814 -1.65426,-0.01244 -2.07116,0.775785 -2.26576,4.282916 -0.14502,2.61366 -0.29253,3.296391 -0.71208,3.296391 -0.4292,0 -0.54811,-0.679344 -0.62949,-3.596058 -0.091,-3.262048 -0.16709,-3.617224 -0.81921,-3.824208 -1.013302,-0.321601 -2.302742,0.07056 -2.638952,0.80264 -0.15671,0.341233 -0.37267,1.968235 -0.47987,3.615584 -0.16143,2.479596 -0.30126,3.015403 -0.81233,3.112664 -0.56147,0.106866 -0.61738,-0.284136 -0.61738,-4.318079 z m 14.800422,3.736075 c -0.56663,-0.45884 -0.79012,-0.999066 -0.76626,-1.852083 0.0421,-1.503892 0.90025,-2.135108 3.56968,-2.625619 1.76155,-0.323665 1.97533,-0.45638 1.97533,-1.226212 0,-1.614328 -3.3827,-1.919658 -3.8808,-0.350282 -0.12536,0.394997 -0.5338,0.704745 -0.92925,0.704745 -0.56692,0 -0.65883,-0.155946 -0.46781,-0.79375 0.40016,-1.336067 1.58298,-2.012051 3.53566,-2.020623 2.83181,-0.01244 3.3297,0.674211 3.3297,4.592002 0,1.872324 0.14385,3.161268 0.3528,3.161268 0.19401,0 0.35276,0.238125 0.35276,0.529167 0,0.707099 -1.62417,0.696542 -1.89619,-0.01244 -0.18682,-0.486834 -0.31355,-0.486834 -1.25494,0 -1.4024,0.725196 -2.9455,0.683365 -3.92068,-0.106284 z m 3.4257,-0.785415 c 1.1948,-0.454263 1.51696,-0.913792 1.52405,-2.173976 0.005,-0.896329 -0.0721,-0.94607 -1.14112,-0.73578 -2.66189,0.523664 -2.90748,0.660136 -3.02689,1.682142 -0.17433,1.492303 0.78105,1.935903 2.64396,1.227614 z m 6.55653,1.07606 c -0.74427,-0.305408 -0.79375,-0.533744 -0.79375,-3.663923 0,-3.1886 -0.0354,-3.343275 -0.79015,-3.450934 -1.17253,-0.167296 -1.27561,-1.34747 -0.11766,-1.34747 0.80232,0 0.90781,-0.143484 0.90781,-1.234705 0,-1.020892 0.12888,-1.234731 0.74414,-1.234731 0.64275,0 0.72451,0.168283 0.60002,1.234731 -0.1352,1.158002 -0.0812,1.234705 0.86921,1.234705 0.77476,0 0.98566,0.145388 0.8957,0.617378 -0.0647,0.33954 -0.47324,0.668073 -0.90782,0.730092 -0.74636,0.106468 -0.79015,0.276198 -0.79015,3.062261 0,2.79019 0.0429,2.955634 0.79375,3.062261 0.43657,0.06202 0.79375,0.350864 0.79375,0.641905 0,0.629709 -1.09688,0.803064 -2.20485,0.34843 z m 4.02754,0.121947 c -0.12935,-0.129355 -0.23519,-2.11373 -0.23519,-4.409732 0,-3.939354 0.0398,-4.174542 0.70557,-4.174542 0.66791,0 0.70556,0.235188 0.70556,4.409731 0,3.439583 -0.10348,4.409731 -0.47037,4.409731 -0.25871,0 -0.57621,-0.105834 -0.70557,-0.235188 z m 5.40928,-0.02276 c -2.63491,-1.006792 -3.16111,-6.000194 -0.82588,-7.83709 1.37224,-1.079394 4.10438,-1.005814 5.25164,0.141446 0.47625,0.47625 0.8659,1.11125 0.8659,1.411102 0,0.853149 -1.05875,0.639816 -1.85621,-0.373988 -0.60531,-0.769514 -0.92128,-0.887016 -1.9404,-0.721651 -0.66955,0.108664 -1.43354,0.482626 -1.69778,0.831003 -0.59737,0.787691 -0.6305,3.964146 -0.0493,4.727258 0.99076,1.300771 3.65641,1.040341 4.03149,-0.393886 0.21709,-0.83013 1.51222,-0.954325 1.51222,-0.144991 0,0.305964 -0.46405,1.020339 -1.03121,1.5875 -0.79724,0.797216 -1.3375,1.024863 -2.38125,1.003326 -0.74253,-0.01535 -1.58816,-0.118824 -1.8792,-0.230029 z m 7.4623,-0.400843 c -0.47347,-0.410634 -0.75954,-1.071933 -0.75954,-1.755775 0,-1.36025 1.13835,-2.198529 3.67613,-2.707085 1.48952,-0.298503 1.81205,-0.500142 1.911,-1.194832 0.13774,-0.966919 -0.43243,-1.431634 -1.76591,-1.43928 -1.39697,-0.0079 -2.05732,0.342053 -2.05732,1.090665 0,0.432621 -0.24847,0.667809 -0.70556,0.667809 -0.96531,0 -0.89115,-0.904822 0.16034,-1.956303 0.67997,-0.679979 1.23126,-0.865902 2.56733,-0.865902 0.96898,0 2.03898,0.236405 2.48549,0.549169 0.70946,0.496914 0.78407,0.845238 0.78407,3.660961 0,2.325449 0.13274,3.221963 0.52528,3.547745 0.28889,0.239765 0.43828,0.576712 0.33197,0.748744 -0.32245,0.521705 -1.50672,0.350361 -1.85283,-0.268049 -0.30181,-0.539301 -0.38438,-0.539301 -1.15437,0 -1.11591,0.781632 -3.20022,0.742473 -4.14608,-0.07787 z m 4.44395,-1.381972 c 0.24251,-0.309959 0.44095,-0.989013 0.44095,-1.508945 0,-0.93353 -0.0204,-0.94152 -1.63809,-0.639339 -1.88336,0.351842 -2.59524,0.830553 -2.59524,1.745218 0,1.390623 2.78783,1.686957 3.79238,0.403066 z m -29.19238,-8.047249 c 0,-0.11557 0.27236,-0.671195 0.60523,-1.234707 0.40931,-0.692889 0.88852,-1.02457 1.48032,-1.02457 0.87032,0 0.86857,0.0067 -0.32166,1.234723 -1.11273,1.148035 -1.76389,1.526283 -1.76389,1.024554 z m 11.70532,-0.932754 c 0.1673,-1.172546 1.34747,-1.275604 1.34747,-0.117666 0,0.682781 -0.18097,0.907809 -0.73009,0.907809 -0.55451,0 -0.703,-0.190023 -0.61738,-0.790143 z m -50.687262,-6.917939 c -1.14461,-0.372179 -1.81036,-0.883698 -2.25676,-1.733958 -0.6522,-1.242184 0.47585,-1.482309 1.40636,-0.29937 0.83037,1.055661 2.56678,1.250045 3.69338,0.413461 1.04761,-0.777925 0.26701,-1.657119 -2.09339,-2.357831 -1.10582,-0.328279 -2.24282,-0.789588 -2.52664,-1.025131 -0.84489,-0.701201 -0.63214,-2.315975 0.41352,-3.138485 1.96959,-1.549283 5.77326,-0.385022 5.77326,1.767139 0,0.608735 -1.12061,0.325176 -1.74059,-0.440428 -0.68794,-0.849585 -2.58593,-1.047475 -3.29033,-0.343067 -0.69411,0.694111 0.1537,1.561214 1.98266,2.027785 0.91149,0.232527 2.04959,0.679847 2.52912,0.994056 1.6628,1.089509 0.78986,3.425685 -1.51974,4.067122 -1.43616,0.398859 -1.3621,0.396714 -2.37085,0.06871 z m 22.1896,-0.21255 c -1.42243,-0.608092 -1.5521,-1.024557 -1.5521,-4.98461 0,-3.087349 0.0499,-3.322535 0.70557,-3.322535 0.65799,0 0.70553,0.235186 0.70553,3.490035 0,3.743605 0.0878,3.918299 1.96914,3.918299 1.70013,0 2.264202,-1.09859 2.264202,-4.409723 0,-2.763425 0.0554,-2.998611 0.70556,-2.998611 0.66635,0 0.70557,0.235186 0.70557,4.233334 0,3.998145 -0.0392,4.233333 -0.70557,4.233333 -0.4827,0 -0.70556,-0.235188 -0.70556,-0.744638 0,-0.743484 0,-0.743543 -0.617362,-0.03723 -0.83132,0.952585 -2.15005,1.188755 -3.47498,0.622343 z m 15.159912,0.06176 c -0.72379,-0.217982 -1.36086,-0.79057 -1.85208,-1.664597 -1.98332,-3.528798 0.23103,-7.444423 3.92938,-6.948368 2.49242,0.334303 3.94332,2.544622 3.47839,5.299072 -0.23746,1.406885 -1.86031,3.395162 -2.80664,3.438641 -0.32309,0.01484 -0.82558,0.06761 -1.11662,0.117261 -0.29105,0.04965 -1.02563,-0.05926 -1.63243,-0.242009 z m 3.37071,-1.890096 c 0.80262,-1.020353 0.98211,-3.23409 0.35695,-4.402225 -0.52787,-0.98633 -1.88809,-1.432322 -3.03662,-0.995653 -1.34845,0.512685 -1.85679,1.350187 -1.8696,3.080236 -0.0212,2.875754 2.92828,4.378418 4.54927,2.317642 z m 11.13811,2.090227 c -1.56397,-0.388385 -2.9986,-2.558391 -2.9986,-4.535644 0,-1.42182 1.0418,-3.301174 2.1467,-3.872547 1.26854,-0.65599 2.21192,-0.649391 3.51525,0.02458 l 1.04082,0.538226 v -2.125593 c 0,-1.890538 0.0781,-2.125726 0.70557,-2.125726 0.67788,0 0.70553,0.235188 0.70553,5.997223 0,5.762035 -0.0275,5.997223 -0.70553,5.997223 -0.38807,0 -0.70557,-0.178189 -0.70557,-0.395973 0,-0.271058 -0.13912,-0.283906 -0.44098,-0.04074 -0.57674,0.464619 -2.37006,0.760873 -3.26319,0.539083 z m 2.78988,-1.622584 c 0.89058,-0.651224 1.2737,-3.083526 0.70043,-4.446926 -0.5338,-1.269566 -1.88487,-1.917454 -3.06382,-1.469216 -1.33686,0.508273 -1.79703,1.36778 -1.76784,3.302069 0.0214,1.420315 0.19462,1.941264 0.81155,2.440829 0.92181,0.746437 2.42827,0.825053 3.31968,0.173244 z m 6.67356,1.358239 c -2.90568,-1.263907 -3.33603,-5.604606 -0.76976,-7.763981 2.05796,-1.731685 5.21724,-0.717799 5.9468,1.908492 0.6022,2.167726 0.64474,2.136905 -2.94989,2.136905 h -3.30247 l 0.17055,0.892109 c 0.37322,1.952339 2.9165,2.541145 4.52744,1.048168 1.01531,-0.940943 1.55416,-1.116375 1.55416,-0.505974 0,0.850546 -0.83388,1.830327 -1.95733,2.29973 -1.45444,0.607702 -1.7906,0.606089 -3.2195,-0.01545 z m 3.76573,-5.465395 c 0,-1.350222 -1.05008,-1.987394 -3.02718,-1.836862 -0.76239,0.05805 -1.78699,1.518137 -1.44904,2.064943 0.10618,0.171842 1.15678,0.323075 2.33466,0.336071 1.77281,0.01958 2.14156,-0.07758 2.14156,-0.564152 z m -80.433332,-0.36985 c 0,-5.762035 0.0276,-5.997223 0.70556,-5.997223 0.67786,0 0.70554,0.235188 0.70554,5.997223 0,5.762035 -0.0276,5.997223 -0.70554,5.997223 -0.67789,0 -0.70556,-0.235188 -0.70556,-5.997223 z m 4.11572,5.762035 c -0.12932,-0.129349 -0.23516,-2.034349 -0.23516,-4.233333 0,-3.76296 0.0415,-3.998146 0.70554,-3.998146 0.42135,0 0.70556,0.235186 0.70556,0.583843 0,0.541732 0.0462,0.542036 0.64051,0.0042 0.99957,-0.904594 2.63726,-1.088215 3.89675,-0.436909 1.1992,0.620141 1.19428,0.5993 1.17441,4.964155 -0.0156,3.411474 -0.005,3.35139 -0.5964,3.35139 -0.43116,0 -0.52916,-0.587965 -0.52916,-3.175 0,-2.748585 -0.0988,-3.273867 -0.73613,-3.911129 -0.54287,-0.542865 -0.98279,-0.675696 -1.67568,-0.50595 -1.6959,0.415457 -1.98856,1.026552 -2.12119,4.429287 -0.11698,3.000478 -0.42424,3.732397 -1.22905,2.927604 z m 18.53261,-0.188145 c -0.26858,-0.268568 -0.42333,-1.62278 -0.42333,-3.704167 0,-3.045648 -0.0506,-3.280833 -0.70557,-3.280833 -0.39198,0 -0.70553,-0.235188 -0.70553,-0.529167 0,-0.293981 0.31355,-0.529167 0.70553,-0.529167 0.58796,0 0.70557,-0.235188 0.70557,-1.411112 0,-1.175925 0.11758,-1.411111 0.70556,-1.411111 0.58796,0 0.70554,0.235186 0.70554,1.411111 0,1.27 0.0882,1.411112 0.88196,1.411112 0.54875,0 0.88194,0.199909 0.88194,0.529167 0,0.329258 -0.33319,0.529167 -0.88194,0.529167 -0.87069,0 -0.88196,0.03783 -0.88196,2.960365 0,2.863511 0.0289,2.967609 0.88196,3.18172 0.48506,0.121748 0.88194,0.456456 0.88194,0.743802 0,0.647023 -2.12715,0.723638 -2.75167,0.09911 z m 4.45709,-0.127524 c -0.0649,-0.325123 -0.068,-2.239185 -0.007,-4.253473 0.10202,-3.369345 0.16642,-3.662337 0.80494,-3.662337 0.65646,0 0.68868,0.22438 0.59468,4.140878 -0.0849,3.534674 -0.18542,4.157361 -0.68702,4.253473 -0.32972,0.06318 -0.63936,-0.14683 -0.70554,-0.478541 z m 4.40878,0.109884 c -0.23865,-0.379346 -0.31628,-1.449993 -0.44767,-6.17361 -0.0153,-0.551207 -0.23768,-0.79375 -0.72763,-0.79375 -0.39198,0 -0.70557,-0.235188 -0.70557,-0.529167 0,-0.293981 0.31359,-0.529167 0.70557,-0.529167 0.51104,0 0.70553,-0.235188 0.70553,-0.85309 0,-2.218664 1.3008,-2.787396 1.47802,-0.646216 0.088,1.062643 0.26564,1.345097 0.90323,1.435648 1.10017,0.156247 1.02426,1.121992 -0.0882,1.121992 -0.87141,0 -0.88194,0.03572 -0.88194,2.99189 0,2.897134 0.0279,2.998901 0.88194,3.213245 0.48506,0.121743 0.88193,0.442267 0.88193,0.712274 0,0.62847 -2.31439,0.671203 -2.70523,0.04995 z m 14.786132,0.03355 c -0.28747,-0.287496 -0.43923,-1.572694 -0.43923,-3.720076 0,-3.045648 -0.0506,-3.280833 -0.70554,-3.280833 -0.38806,0 -0.70556,-0.219612 -0.70556,-0.488024 0,-0.268409 0.3175,-0.571048 0.70556,-0.672529 0.54372,-0.142189 0.70554,-0.481192 0.70554,-1.478121 0,-1.0414 0.12039,-1.270807 0.61738,-1.176623 0.43143,0.08177 0.65032,0.514485 0.72684,1.436981 0.0941,1.134166 0.23063,1.319982 0.97014,1.319982 0.52983,0 0.86064,0.203396 0.86064,0.529167 0,0.329258 -0.33316,0.529167 -0.88194,0.529167 -0.87069,0 -0.88193,0.03783 -0.88193,2.960365 0,2.885323 0.023,2.966137 0.90699,3.188012 0.49885,0.125203 0.84381,0.420227 0.76658,0.655605 -0.19394,0.591043 -2.10881,0.733579 -2.64547,0.196919 z m -239.622562,-0.826906 c -4.80401,-0.968896 -8.37801,-2.855203 -9.79588,-5.170133 -1.03979,-1.697614 -1.56903,-3.932944 -1.17599,-4.966755 0.55192,-1.451642 2.98442,-3.601009 5.35778,-4.734156 4.69432,-2.241266 8.82322,-2.986325 16.55019,-2.986479 13.57291,-2.64e-4 27.09053,2.809584 38.80557,8.06635 1.26119,0.565914 2.96775,1.324337 3.79235,1.685388 0.82462,0.361047 1.49931,0.752991 1.49931,0.870984 0,0.523783 -16.49492,4.203817 -25.92916,5.784816 -11.69583,1.960004 -23.6279,2.554462 -29.10417,1.449985 z m 220.48613,-9.878171 c 0,-0.699325 0.15494,-0.903838 0.61735,-0.814787 0.33954,0.06539 0.61735,0.432044 0.61735,0.814787 0,0.382741 -0.27781,0.749395 -0.61735,0.814785 -0.46241,0.08905 -0.61735,-0.115459 -0.61735,-0.814785 z M -310.48224,-69.371233 V -82.42401 h 1.94026 1.9403 v 1.303928 1.303922 l 1.14652,-1.109655 c 1.51167,-1.463069 3.2304,-2.102077 5.32778,-1.980824 3.69811,0.213802 6.22991,1.917909 7.66601,5.159883 0.65329,1.47473 0.82233,2.492 0.83484,5.024136 0.0143,2.905247 -0.0807,3.359618 -1.11874,5.348004 -1.24933,2.393125 -2.52513,3.491778 -4.87658,4.199459 -2.38453,0.717643 -5.81147,-0.0058 -7.46578,-1.576086 -0.42844,-0.406691 -0.865,-0.739433 -0.97015,-0.739433 -0.10511,0 -0.19113,2.06375 -0.19113,4.58611 v 4.586113 h -2.11667 -2.11666 z m 11.98213,2.525316 c 1.78911,-0.959504 2.65525,-2.87823 2.65684,-5.885495 0.003,-4.740709 -1.96668,-7.101724 -5.66711,-6.794852 -3.26443,0.270711 -4.73853,2.305585 -4.73853,6.541172 0,5.33499 3.73324,8.29274 7.7488,6.139175 z m 14.95158,3.826483 c -5.20026,-0.768482 -6.85033,-7.170224 -2.56445,-9.949246 1.02275,-0.663154 2.27952,-1.037682 4.48879,-1.337662 4.74072,-0.643718 5.67298,-0.951584 5.92526,-1.956699 0.56491,-2.250763 -0.70085,-3.338746 -3.88427,-3.338746 -2.01557,0 -3.49469,0.803289 -3.91445,2.125869 -0.18791,0.592048 -0.54023,0.696352 -2.35218,0.696352 h -2.13114 l 0.23612,-0.970137 c 0.39624,-1.628077 1.8243,-3.472583 3.1905,-4.120891 2.17998,-1.034471 5.61269,-1.353413 7.99574,-0.742908 4.52276,1.158674 4.88193,1.856994 4.88193,9.491732 0,3.195224 0.0964,6.060609 0.21413,6.367518 0.11776,0.306914 0.60314,0.558019 1.07862,0.558019 0.79786,0 0.85612,0.11457 0.756,1.486662 -0.10028,1.374262 -0.19823,1.504884 -1.29556,1.727631 -1.5253,0.309619 -3.24133,-0.187031 -3.96608,-1.147849 l -0.56965,-0.75519 -1.90108,0.899086 c -2.11175,0.998702 -3.98759,1.291669 -6.18823,0.966459 z m 5.64671,-3.707175 c 1.63221,-0.681979 2.41443,-2.173816 2.27496,-4.338722 -0.0817,-1.268222 -0.231,-1.624655 -0.63595,-1.518282 -0.29104,0.07645 -1.48167,0.276945 -2.64583,0.445534 -1.16417,0.168585 -2.6321,0.475369 -3.2621,0.681739 -2.69933,0.884235 -2.98101,4.076282 -0.44207,5.009833 1.04497,0.384227 3.46546,0.240313 4.71099,-0.280102 z m -74.56099,-6.172401 v -9.525 h 2.11667 2.11666 v 9.525 9.525 h -2.11666 -2.11667 z m 9.43475,9.260417 c -0.0726,-0.145521 -0.10176,-0.463021 -0.0649,-0.705556 0.0369,-0.242533 0.0868,-4.409721 0.1111,-9.260417 l 0.0441,-8.819444 h 1.9403 1.94026 v 1.322917 1.322917 l 0.79333,-0.917885 c 2.3902,-2.765518 7.13428,-3.016039 9.5254,-0.503013 l 1.06643,1.120796 0.92157,-0.855601 c 1.58805,-1.474362 2.90031,-1.959938 5.20861,-1.92735 2.53865,0.03584 3.97545,0.676537 5.12197,2.283979 0.79364,1.112729 0.82518,1.424456 0.92818,9.177547 l 0.10663,8.025693 h -2.11529 -2.11529 l -0.10801,-7.440136 c -0.10644,-7.332813 -0.12001,-7.449852 -0.94083,-8.11389 -1.00573,-0.81363 -3.19871,-0.887439 -4.61449,-0.155302 -1.53257,0.792607 -1.78446,2.096116 -1.78446,9.23558 v 6.473748 h -2.11666 -2.11667 v -6.650135 c 0,-6.881365 -0.26723,-8.61268 -1.42505,-9.232313 -1.14307,-0.611762 -3.34772,-0.401161 -4.39097,0.419457 -1.69907,1.336496 -1.94511,2.510026 -1.94511,9.278049 v 6.184942 h -1.91944 c -1.05572,0 -1.97882,-0.119062 -2.05137,-0.264583 z m -9.43475,-24.253473 v -1.940277 h 2.11667 2.11666 v 1.940277 1.940279 h -2.11666 -2.11667 z"
       id="path821"
       inkscape:connector-curvature="0" />
  </g>
</svg>
