<?xml version="1.0" encoding="UTF-8" standalone="no"?>
<!-- Created with Inkscape (http://www.inkscape.org/) -->

<svg
   xmlns:dc="http://purl.org/dc/elements/1.1/"
   xmlns:cc="http://creativecommons.org/ns#"
   xmlns:rdf="http://www.w3.org/1999/02/22-rdf-syntax-ns#"
   xmlns:svg="http://www.w3.org/2000/svg"
   xmlns="http://www.w3.org/2000/svg"
   xmlns:sodipodi="http://sodipodi.sourceforge.net/DTD/sodipodi-0.dtd"
   xmlns:inkscape="http://www.inkscape.org/namespaces/inkscape"
   width="198.76349mm"
   height="70.177338mm"
   viewBox="0 0 198.76349 70.177338"
   version="1.1"
   id="svg956"
   inkscape:version="0.92.3 (2405546, 2018-03-11)"
   sodipodi:docname="lpi.svg">
  <defs
     id="defs950" />
  <sodipodi:namedview
     id="base"
     pagecolor="#ffffff"
     bordercolor="#666666"
     borderopacity="1.0"
     inkscape:pageopacity="0.0"
     inkscape:pageshadow="2"
     inkscape:zoom="0.35"
     inkscape:cx="-319.25693"
     inkscape:cy="-277.76879"
     inkscape:document-units="mm"
     inkscape:current-layer="layer1"
     showgrid="false"
     fit-margin-top="0"
     fit-margin-left="0"
     fit-margin-right="0"
     fit-margin-bottom="0"
     inkscape:window-width="3840"
     inkscape:window-height="2034"
     inkscape:window-x="0"
     inkscape:window-y="60"
     inkscape:window-maximized="1" />
  <metadata
     id="metadata953">
    <rdf:RDF>
      <cc:Work
         rdf:about="">
        <dc:format>image/svg+xml</dc:format>
        <dc:type
           rdf:resource="http://purl.org/dc/dcmitype/StillImage" />
        <dc:title></dc:title>
      </cc:Work>
    </rdf:RDF>
  </metadata>
  <g
     inkscape:label="Layer 1"
     inkscape:groupmode="layer"
     id="layer1"
     transform="translate(-3.205181,-5.1630014)">
    <path
       inkscape:connector-curvature="0"
       class="cls-2"
       d="m 54.066139,27.064537 a 4.3617002,4.3617002 0 1 1 -4.367904,-4.359102 4.3617002,4.3617002 0 0 1 4.367904,4.359102"
       id="path12"
       style="stroke-width:0.58205432" />
    <polygon
       transform="matrix(0.58205438,0,0,0.58205438,-42.926003,-29.925948)"
       class="cls-2"
       points="147.107,82.867 132.049,82.867 113.981,150.63 165.184,150.63 169.2,135.572 133.216,135.572 "
       id="polygon14" />
    <path
       inkscape:connector-curvature="0"
       class="cls-2"
       d="M 38.294178,5.1630014 A 35.08867,35.08867 0 1 0 73.382521,40.251993 v -0.0017 A 35.088787,35.088787 0 0 0 38.294178,5.1630014 Z m 0,61.3661436 A 26.277678,26.277678 0 1 1 64.572377,40.251456 26.277678,26.277678 0 0 1 38.294178,66.529145 Z"
       id="path16"
       style="stroke-width:0.58205432" />
    <path
       inkscape:connector-curvature="0"
       class="cls-2"
       d="m 93.54982,33.189986 a 4.4178918,4.4178918 0 0 1 3.126858,1.114259 3.7378951,3.7378951 0 0 1 1.202615,2.871695 3.6933272,3.6933272 0 0 1 -1.217332,2.876511 4.6062097,4.6062097 0 0 1 -3.210389,1.099543 h -2.552576 v 5.753172 h -2.650714 v -13.71518 z m -0.65779,5.890534 a 2.5428616,2.5428616 0 0 0 1.654274,-0.485927 1.7499698,1.7499698 0 0 0 0.593927,-1.438322 q 0,-1.894796 -2.434773,-1.894796 h -1.806462 v 3.819041 z"
       id="path18"
       style="stroke-width:0.58205432" />
    <path
       inkscape:connector-curvature="0"
       class="cls-2"
       d="m 105.93302,37.558792 a 2.2332438,2.2332438 0 0 1 0.94735,0.21603 5.2806418,5.2806418 0 0 1 1.08494,0.726467 l -0.86392,2.110727 a 3.1787911,3.1787911 0 0 0 -1.68866,-0.785372 1.8061148,1.8061148 0 0 0 -1.10449,0.417244 2.9839599,2.9839599 0 0 0 -0.8738,1.104485 3.1609393,3.1609393 0 0 0 -0.32892,1.374475 v 4.182329 h -2.41509 v -9.169685 h 2.41509 v 2.33665 h 0.0393 a 6.3711674,6.3711674 0 0 1 1.32533,-1.919406 2.156139,2.156139 0 0 1 1.46283,-0.59395 z"
       id="path20"
       style="stroke-width:0.58205432" />
    <path
       inkscape:connector-curvature="0"
       class="cls-2"
       d="m 114.24362,37.558792 a 5.6194673,5.6194673 0 0 1 2.60169,0.598887 4.3509962,4.3509962 0 0 1 1.80633,1.678756 4.7139363,4.7139363 0 0 1 0.63824,2.444669 4.9252336,4.9252336 0 0 1 -0.61362,2.493581 4.3022377,4.3022377 0 0 1 -1.80645,1.688642 5.6184372,5.6184372 0 0 1 -2.62624,0.618556 5.5508838,5.5508838 0 0 1 -2.62125,-0.618556 4.3208982,4.3208982 0 0 1 -1.79175,-1.688642 4.9241044,4.9241044 0 0 1 -0.61361,-2.493581 4.6701368,4.6701368 0 0 1 0.64791,-2.459395 4.4090271,4.4090271 0 0 1 1.80643,-1.668977 5.5555461,5.5555461 0 0 1 2.57232,-0.59394 z m -2.49369,4.722318 a 3.3536518,3.3536518 0 0 0 0.67253,2.19424 2.2106425,2.2106425 0 0 0 1.8015,0.81976 2.322199,2.322199 0 0 0 1.85558,-0.785478 3.3428898,3.3428898 0 0 0 0.67736,-2.248195 3.1188628,3.1188628 0 0 0 -0.68231,-2.155011 2.3611443,2.3611443 0 0 0 -1.85061,-0.760861 2.2386685,2.2386685 0 0 0 -1.78678,0.805039 3.1690883,3.1690883 0 0 0 -0.68727,2.130506 z"
       id="path22"
       style="stroke-width:0.58205432" />
    <path
       inkscape:connector-curvature="0"
       class="cls-2"
       d="m 126.08686,33.013284 a 5.0119364,5.0119364 0 0 1 0.86889,0.07858 2.9611433,2.9611433 0 0 1 0.72163,0.206151 v 1.963479 a 4.1071038,4.1071038 0 0 0 -1.08976,-0.13747 1.7111119,1.7111119 0 0 0 -1.30083,0.45164 2.1512729,2.1512729 0 0 0 -0.42702,1.502054 v 0.657784 h 1.57074 v 1.826113 h -1.57074 v 7.343611 h -2.41512 v -7.343623 h -1.30583 v -1.826114 h 1.30579 v -0.687238 a 4.1966994,4.1966994 0 0 1 0.99649,-2.945196 3.4123288,3.4123288 0 0 1 2.64576,-1.089775 z"
       id="path24"
       style="stroke-width:0.58205432" />
    <path
       inkscape:connector-curvature="0"
       class="cls-2"
       d="m 132.82671,37.558792 a 4.1100374,4.1100374 0 0 1 3.20048,1.295909 5.1306174,5.1306174 0 0 1 1.17808,3.583442 v 0.363287 h -6.4894 a 2.8268636,2.8268636 0 0 0 0.91801,1.88985 3.13945,3.13945 0 0 0 2.11568,0.662734 4.7086861,4.7086861 0 0 0 1.66403,-0.299451 7.2737009,7.2737009 0 0 0 1.65426,-0.908115 v 1.796562 a 6.5915157,6.5915157 0 0 1 -3.9074,1.138877 4.9354195,4.9354195 0 0 1 -3.54413,-1.305791 4.56922,4.56922 0 0 1 -1.37447,-3.475446 4.7316134,4.7316134 0 0 1 1.2714,-3.41652 4.3841094,4.3841094 0 0 1 3.31346,-1.325338 z m 2.11073,3.779808 a 2.653906,2.653906 0 0 0 -0.60866,-1.5659 1.7972268,1.7972268 0 0 0 -1.40393,-0.564493 2.0146416,2.0146416 0 0 0 -1.46777,0.539883 2.6645867,2.6645867 0 0 0 -0.70185,1.59051 z"
       id="path26"
       style="stroke-width:0.58205432" />
    <path
       inkscape:connector-curvature="0"
       class="cls-2"
       d="m 143.07953,37.558792 a 5.6937258,5.6937258 0 0 1 1.42351,0.171855 7.1962469,7.1962469 0 0 1 1.41381,0.544804 v 1.934026 a 6.7992626,6.7992626 0 0 0 -1.47272,-0.711741 4.3799593,4.3799593 0 0 0 -1.40389,-0.269991 1.4570043,1.4570043 0 0 0 -0.81483,0.196362 0.63321697,0.63321697 0 0 0 -0.29452,0.559658 0.5640107,0.5640107 0 0 0 0.24538,0.412299 9.1459136,9.1459136 0 0 0 1.34503,0.755919 8.2342361,8.2342361 0 0 1 2.20401,1.467768 2.2725382,2.2725382 0 0 1 0.63327,1.615018 2.558711,2.558711 0 0 1 -0.92282,2.086222 3.8018745,3.8018745 0 0 1 -2.49368,0.760868 7.4105068,7.4105068 0 0 1 -1.83096,-0.216029 6.1388286,6.1388286 0 0 1 -1.40885,-0.520321 v -2.012594 a 6.4636789,6.4636789 0 0 0 2.97476,0.981741 1.9917901,1.9917901 0 0 0 1.00143,-0.220885 0.65991581,0.65991581 0 0 0 0.38282,-0.584161 0.62429989,0.62429989 0 0 0 -0.13749,-0.39263 1.7984724,1.7984724 0 0 0 -0.41228,-0.36329 q -0.27496,-0.186484 -1.71809,-0.893389 a 4.9039129,4.9039129 0 0 1 -1.63952,-1.153602 2.2076566,2.2076566 0 0 1 -0.5302,-1.477553 2.3209534,2.3209534 0 0 1 0.95237,-1.943915 4.0191845,4.0191845 0 0 1 2.50344,-0.72645 z"
       id="path28"
       style="stroke-width:0.58205432" />
    <path
       inkscape:connector-curvature="0"
       class="cls-2"
       d="m 152.20337,37.558792 a 5.6934871,5.6934871 0 0 1 1.42349,0.171855 7.1925393,7.1925393 0 0 1 1.4137,0.544804 v 1.934026 a 6.8007235,6.8007235 0 0 0 -1.47259,-0.711741 4.3798253,4.3798253 0 0 0 -1.40392,-0.269991 1.457045,1.457045 0 0 0 -0.81482,0.196362 0.63321697,0.63321697 0 0 0 -0.29452,0.559658 0.56370804,0.56370804 0 0 0 0.24538,0.412299 9.1396273,9.1396273 0 0 0 1.34502,0.755919 8.2360696,8.2360696 0 0 1 2.20402,1.467768 2.2725382,2.2725382 0 0 1 0.63328,1.615018 2.558711,2.558711 0 0 1 -0.92283,2.086222 3.8018745,3.8018745 0 0 1 -2.49368,0.760868 7.4105068,7.4105068 0 0 1 -1.83096,-0.216029 6.1388286,6.1388286 0 0 1 -1.40885,-0.520321 v -2.012594 a 6.4636789,6.4636789 0 0 0 2.97476,0.981741 1.9910741,1.9910741 0 0 0 1.0013,-0.220885 0.66004967,0.66004967 0 0 0 0.38297,-0.584161 0.62418347,0.62418347 0 0 0 -0.1375,-0.39263 1.7984724,1.7984724 0 0 0 -0.4123,-0.36329 q -0.27499,-0.186484 -1.7181,-0.893389 a 4.9039829,4.9039829 0 0 1 -1.63953,-1.153602 2.2070396,2.2070396 0 0 1 -0.5302,-1.477553 2.321134,2.321134 0 0 1 0.9523,-1.943915 4.0197199,4.0197199 0 0 1 2.50356,-0.72645 z"
       id="path30"
       style="stroke-width:0.58205432" />
    <path
       inkscape:connector-curvature="0"
       class="cls-2"
       d="m 159.64013,33.494371 a 1.374405,1.374405 0 0 1 1.36469,1.36459 1.347811,1.347811 0 0 1 -0.39766,0.957229 1.3178934,1.3178934 0 0 1 -1.86277,0.06153 q -0.0319,-0.02975 -0.0616,-0.06153 a 1.3318511,1.3318511 0 0 1 -0.40734,-0.957229 1.2927428,1.2927428 0 0 1 0.41228,-0.967012 1.3315949,1.3315949 0 0 1 0.95229,-0.397578 z m 1.20756,4.241121 v 9.169685 h -2.41512 v -9.169685 z"
       id="path32"
       style="stroke-width:0.58205432" />
    <path
       inkscape:connector-curvature="0"
       class="cls-2"
       d="m 168.89157,37.558792 a 5.6189143,5.6189143 0 0 1 2.6017,0.598887 4.3518693,4.3518693 0 0 1 1.80643,1.678756 4.7138954,4.7138954 0 0 1 0.63813,2.444669 4.9248669,4.9248669 0 0 1 -0.61364,2.493581 4.3022377,4.3022377 0 0 1 -1.80643,1.688642 5.6178491,5.6178491 0 0 1 -2.62625,0.618556 5.5511459,5.5511459 0 0 1 -2.62127,-0.618556 4.3216141,4.3216141 0 0 1 -1.79169,-1.688642 4.9248786,4.9248786 0 0 1 -0.61362,-2.493581 4.6702064,4.6702064 0 0 1 0.64799,-2.459395 4.4090271,4.4090271 0 0 1 1.80646,-1.668977 5.5554297,5.5554297 0 0 1 2.57219,-0.59394 z m -2.4937,4.722318 a 3.3542979,3.3542979 0 0 0 0.67251,2.19424 2.2107472,2.2107472 0 0 0 1.8016,0.81976 2.3219489,2.3219489 0 0 0 1.85546,-0.785478 3.3428374,3.3428374 0 0 0 0.67746,-2.248195 3.1193285,3.1193285 0 0 0 -0.68227,-2.155011 2.3611443,2.3611443 0 0 0 -1.85065,-0.760861 2.2387732,2.2387732 0 0 0 -1.7869,0.805039 3.1691639,3.1691639 0 0 0 -0.68721,2.130506 z"
       id="path34"
       style="stroke-width:0.58205432" />
    <path
       inkscape:connector-curvature="0"
       class="cls-2"
       d="m 182.1895,37.558792 a 3.0216771,3.0216771 0 0 1 2.3513,0.967013 3.6422402,3.6422402 0 0 1 0.87876,2.547746 v 5.831637 h -2.40533 v -5.586255 a 2.1624834,2.1624834 0 0 0 -0.42717,-1.413705 1.4249798,1.4249798 0 0 0 -1.16336,-0.520321 1.8525568,1.8525568 0 0 0 -1.05042,0.328893 4.9436208,4.9436208 0 0 0 -1.07998,1.094595 v 6.096793 h -2.41512 v -9.169686 h 2.41512 v 1.286126 a 4.3013818,4.3013818 0 0 1 1.36954,-1.124149 3.4680953,3.4680953 0 0 1 1.52666,-0.338687 z"
       id="path36"
       style="stroke-width:0.58205432" />
    <path
       inkscape:connector-curvature="0"
       class="cls-2"
       d="m 192.0595,37.558792 a 4.2182237,4.2182237 0 0 1 2.69983,0.751083 2.5404288,2.5404288 0 0 1 0.9326,2.095978 v 4.486707 q 0,0.520311 0.42221,0.520323 a 1.2725339,1.2725339 0 0 0 0.4958,-0.152188 2.1934835,2.1934835 0 0 0 0.53505,-0.348564 v 1.394165 a 4.5221668,4.5221668 0 0 1 -2.31698,0.775589 1.9009896,1.9009896 0 0 1 -0.99649,-0.216029 1.1871523,1.1871523 0 0 1 -0.48591,-0.765699 4.7777874,4.7777874 0 0 1 -2.77841,0.981739 2.4033026,2.4033026 0 0 1 -1.70335,-0.667577 2.1176535,2.1176535 0 0 1 -0.71176,-1.600292 2.4939924,2.4939924 0 0 1 0.7068,-1.875129 6.0098688,6.0098688 0 0 1 2.47402,-1.197776 l 1.95379,-0.569434 V 40.7495 q 0,-1.344971 -1.62974,-1.345024 a 3.9077444,3.9077444 0 0 0 -1.65921,0.382957 4.7040705,4.7040705 0 0 0 -1.50203,1.128988 V 38.74669 a 5.5723209,5.5723209 0 0 1 3.56378,-1.187898 z m -1.47262,6.891942 a 1.0610852,1.0610852 0 0 0 0.31901,0.805039 1.1009151,1.1009151 0 0 0 0.79031,0.304415 2.3803463,2.3803463 0 0 0 1.5905,-0.726468 v -2.415215 a 11.221205,11.221205 0 0 0 -1.58557,0.648005 2.9036015,2.9036015 0 0 0 -0.84437,0.618451 1.1349653,1.1349653 0 0 0 -0.26988,0.765773 z"
       id="path38"
       style="stroke-width:0.58205432" />
    <path
       inkscape:connector-curvature="0"
       class="cls-2"
       d="M 201.96867,33.189986 V 46.905194 H 199.5536 V 33.189986 Z"
       id="path40"
       style="stroke-width:0.58205432" />
    <path
       inkscape:connector-curvature="0"
       class="cls-2"
       d="M 90.957908,54.629375 V 68.344473 H 88.307173 V 54.629375 Z"
       id="path42"
       style="stroke-width:0.58205432" />
    <path
       inkscape:connector-curvature="0"
       class="cls-2"
       d="m 100.05228,58.998193 a 3.0217061,3.0217061 0 0 1 2.35138,0.967006 3.6422227,3.6422227 0 0 1 0.87865,2.547649 v 5.831647 H 100.877 v -5.586161 a 2.1630363,2.1630363 0 0 0 -0.42716,-1.413803 1.4246771,1.4246771 0 0 0 -1.16339,-0.520319 1.8533834,1.8533834 0 0 0 -1.050426,0.328884 4.9443309,4.9443309 0 0 0 -1.079968,1.09471 v 6.096689 H 94.74095 v -9.169606 h 2.415106 v 1.286122 a 4.3000781,4.3000781 0 0 1 1.369537,-1.124144 3.4667159,3.4667159 0 0 1 1.526687,-0.338674 z"
       id="path44"
       style="stroke-width:0.58205432" />
    <path
       inkscape:connector-curvature="0"
       class="cls-2"
       d="m 109.59989,58.998193 a 5.6948201,5.6948201 0 0 1 1.42357,0.171812 7.196305,7.196305 0 0 1 1.41372,0.544934 v 1.934013 a 6.8013054,6.8013054 0 0 0 -1.47259,-0.71173 4.3805414,4.3805414 0 0 0 -1.40392,-0.270016 1.4564806,1.4564806 0 0 0 -0.81493,0.196451 0.63327518,0.63327518 0 0 0 -0.29452,0.559563 0.56385937,0.56385937 0 0 0 0.24549,0.412392 9.1538006,9.1538006 0 0 0 1.345,0.755927 8.2355515,8.2355515 0 0 1 2.20406,1.467766 2.2720552,2.2720552 0 0 1 0.63317,1.614918 2.5580942,2.5580942 0 0 1 -0.92286,2.086223 3.8009256,3.8009256 0 0 1 -2.49368,0.760853 7.4116886,7.4116886 0 0 1 -1.83092,-0.216029 6.1380137,6.1380137 0 0 1 -1.40877,-0.520317 v -2.012592 a 6.464581,6.464581 0 0 0 2.97467,0.981745 1.9914699,1.9914699 0 0 0 1.00139,-0.220891 0.66004967,0.66004967 0 0 0 0.38285,-0.58416 0.62442795,0.62442795 0 0 0 -0.13728,-0.392724 1.8014583,1.8014583 0 0 0 -0.41239,-0.363202 q -0.27483,-0.186551 -1.71811,-0.893508 a 4.9060958,4.9060958 0 0 1 -1.63952,-1.153491 2.2077323,2.2077323 0 0 1 -0.5301,-1.477556 2.3210117,2.3210117 0 0 1 0.95229,-1.943911 4.0185035,4.0185035 0 0 1 2.50346,-0.726426 z"
       id="path46"
       style="stroke-width:0.58205432" />
    <path
       inkscape:connector-curvature="0"
       class="cls-2"
       d="m 118.26232,56.740115 h 0.19645 v 2.434774 h 3.14157 v 1.826019 h -3.14157 v 4.231445 a 1.3738753,1.3738753 0 0 0 0.37305,1.001413 1.3593705,1.3593705 0 0 0 1.02098,0.382846 4.1311659,4.1311659 0 0 0 1.9439,-0.608688 v 1.934034 a 6.071875,6.071875 0 0 1 -2.45435,0.57921 3.3264407,3.3264407 0 0 1 -2.42006,-0.844252 3.0423051,3.0423051 0 0 1 -0.86886,-2.287535 v -4.388473 h -1.43337 v -0.392637 z"
       id="path48"
       style="stroke-width:0.58205432" />
    <path
       inkscape:connector-curvature="0"
       class="cls-2"
       d="m 125.46346,54.933653 a 1.3744108,1.3744108 0 0 1 1.3647,1.364702 1.3479913,1.3479913 0 0 1 -0.39768,0.957238 1.3178875,1.3178875 0 0 1 -1.86275,0.06159 q -0.0319,-0.0297 -0.0616,-0.06159 a 1.3320314,1.3320314 0 0 1 -0.40737,-0.957238 1.2925565,1.2925565 0 0 1 0.41229,-0.967006 1.3313155,1.3313155 0 0 1 0.95231,-0.397696 z m 1.20755,4.241236 v 9.169584 h -2.41511 v -9.169584 z"
       id="path50"
       style="stroke-width:0.58205432" />
    <path
       inkscape:connector-curvature="0"
       class="cls-2"
       d="m 132.6827,56.740115 h 0.19646 v 2.434774 h 3.14157 v 1.826019 h -3.14157 v 4.231445 a 1.3739801,1.3739801 0 0 0 0.3731,1.001413 1.3593705,1.3593705 0 0 0 1.02097,0.382846 4.1311659,4.1311659 0 0 0 1.94393,-0.608688 v 1.934034 a 6.0726607,6.0726607 0 0 1 -2.45446,0.57921 3.3267668,3.3267668 0 0 1 -2.42006,-0.844252 3.0422644,3.0422644 0 0 1 -0.86877,-2.287535 v -4.388473 h -1.43339 v -0.392637 z"
       id="path52"
       style="stroke-width:0.58205432" />
    <path
       inkscape:connector-curvature="0"
       class="cls-2"
       d="m 140.92294,59.174889 v 5.674616 a 1.8910424,1.8910424 0 0 0 0.44669,1.359643 1.5623096,1.5623096 0 0 0 1.18292,0.466355 2.0752102,2.0752102 0 0 0 1.16833,-0.37308 2.692863,2.692863 0 0 0 0.90328,-1.050446 v -6.077088 h 2.41511 v 9.169584 h -2.41514 v -1.246745 a 3.8156808,3.8156808 0 0 1 -2.8275,1.423484 3.1071112,3.1071112 0 0 1 -2.37588,-0.962079 3.5232741,3.5232741 0 0 1 -0.90319,-2.513353 v -5.870891 z"
       id="path54"
       style="stroke-width:0.58205432" />
    <path
       inkscape:connector-curvature="0"
       class="cls-2"
       d="m 152.97401,56.740115 h 0.19646 v 2.434774 h 3.14159 v 1.826019 h -3.14159 v 4.231445 a 1.3739801,1.3739801 0 0 0 0.37309,1.001413 1.3593705,1.3593705 0 0 0 1.021,0.382846 4.1308399,4.1308399 0 0 0 1.94388,-0.608688 v 1.934034 a 6.071875,6.071875 0 0 1 -2.45434,0.57921 3.3265631,3.3265631 0 0 1 -2.42007,-0.844252 3.0423051,3.0423051 0 0 1 -0.86886,-2.287535 v -4.388473 h -1.43339 v -0.392637 z"
       id="path56"
       style="stroke-width:0.58205432" />
    <path
       inkscape:connector-curvature="0"
       class="cls-2"
       d="m 162.99123,58.998193 a 4.1100374,4.1100374 0 0 1 3.20049,1.295912 5.1306174,5.1306174 0 0 1 1.17809,3.583445 v 0.363203 h -6.48941 a 2.8269799,2.8269799 0 0 0 0.91799,1.889925 3.1394209,3.1394209 0 0 0 2.11568,0.66263 4.7086861,4.7086861 0 0 0 1.66402,-0.299449 7.2765703,7.2765703 0 0 0 1.65433,-0.908138 v 1.796673 a 6.5926973,6.5926973 0 0 1 -3.90748,1.138774 4.9357863,4.9357863 0 0 1 -3.54414,-1.305702 4.5693481,4.5693481 0 0 1 -1.37447,-3.475431 4.7314561,4.7314561 0 0 1 1.27141,-3.416539 4.3837134,4.3837134 0 0 1 3.31349,-1.325303 z m 2.11074,3.779698 a 2.6540167,2.6540167 0 0 0 -0.60866,-1.565883 1.797285,1.797285 0 0 0 -1.40394,-0.564513 2.0140363,2.0140363 0 0 0 -1.46764,0.540007 2.6639755,2.6639755 0 0 0 -0.70195,1.590411 z"
       id="path58"
       style="stroke-width:0.58205432" />
    <path
       inkscape:connector-curvature="0"
       class="cls-2"
       d="m 90.898996,11.658048 v 11.643713 h 6.65634 v 2.071496 H 88.248282 V 11.658048 Z"
       id="path60"
       style="stroke-width:0.58205432" />
    <path
       inkscape:connector-curvature="0"
       class="cls-2"
       d="m 101.35806,11.962434 a 1.374405,1.374405 0 0 1 1.3646,1.364589 1.3479448,1.3479448 0 0 1 -0.39759,0.957229 1.3178817,1.3178817 0 0 1 -1.86274,0.06153 q -0.0319,-0.02975 -0.0616,-0.06153 a 1.3313854,1.3313854 0 0 1 -0.407444,-0.957229 1.2932608,1.2932608 0 0 1 0.412314,-0.967012 1.3316764,1.3316764 0 0 1 0.95239,-0.397577 z m 1.20758,4.241226 v 9.169591 h -2.41512 V 16.20366 Z"
       id="path62"
       style="stroke-width:0.58205432" />
    <path
       inkscape:connector-curvature="0"
       class="cls-2"
       d="m 111.37687,16.026854 a 3.0214094,3.0214094 0 0 1 2.35127,0.967119 3.6418035,3.6418035 0 0 1 0.87877,2.547651 v 5.831604 h -2.40532 v -5.586233 a 2.1626872,2.1626872 0 0 0 -0.42716,-1.413704 1.4247062,1.4247062 0 0 0 -1.16336,-0.520322 1.8525568,1.8525568 0 0 0 -1.05042,0.328896 4.9443889,4.9443889 0 0 0 -1.07998,1.094699 v 6.096687 h -2.41512 V 16.20366 h 2.41512 v 1.286021 a 4.3008814,4.3008814 0 0 1 1.36954,-1.124048 3.4666694,3.4666694 0 0 1 1.52666,-0.338779 z"
       id="path64"
       style="stroke-width:0.58205432" />
    <path
       inkscape:connector-curvature="0"
       class="cls-2"
       d="m 120.27488,16.20366 v 5.674502 a 1.8917583,1.8917583 0 0 0 0.4467,1.359747 1.5624959,1.5624959 0 0 0 1.18302,0.466366 2.0752392,2.0752392 0 0 0 1.16823,-0.373097 2.6924322,2.6924322 0 0 0 0.90329,-1.050526 V 16.20366 h 2.41511 v 9.169591 h -2.41511 v -1.24676 a 3.81532,3.81532 0 0 1 -2.82753,1.42349 3.1069422,3.1069422 0 0 1 -2.37577,-0.962072 3.5235826,3.5235826 0 0 1 -0.90328,-2.513352 V 16.20366 Z"
       id="path66"
       style="stroke-width:0.58205432" />
    <path
       inkscape:connector-curvature="0"
       class="cls-2"
       d="m 131.54059,16.20366 2.28754,2.876513 2.19906,-2.876513 h 2.89624 l -3.6816,4.506264 3.95651,4.663308 h -2.8962 l -2.47401,-3.033666 -2.3661,3.033666 h -2.81764 l 3.79939,-4.663308 -3.79939,-4.506264 z"
       id="path68"
       style="stroke-width:0.58205432" />
  </g>
</svg>
