<?xml version="1.0" encoding="UTF-8" standalone="no"?>
<!-- Created with Inkscape (http://www.inkscape.org/) -->

<svg
   xmlns:dc="http://purl.org/dc/elements/1.1/"
   xmlns:cc="http://creativecommons.org/ns#"
   xmlns:rdf="http://www.w3.org/1999/02/22-rdf-syntax-ns#"
   xmlns:svg="http://www.w3.org/2000/svg"
   xmlns="http://www.w3.org/2000/svg"
   xmlns:sodipodi="http://sodipodi.sourceforge.net/DTD/sodipodi-0.dtd"
   xmlns:inkscape="http://www.inkscape.org/namespaces/inkscape"
   version="1.1"
   id="svg881"
   width="46.080002"
   height="49.919998"
   viewBox="0 0 46.080002 49.919998"
   sodipodi:docname="ludes.svg"
   inkscape:version="0.92.3 (2405546, 2018-03-11)">
  <metadata
     id="metadata887">
    <rdf:RDF>
      <cc:Work
         rdf:about="">
        <dc:format>image/svg+xml</dc:format>
        <dc:type
           rdf:resource="http://purl.org/dc/dcmitype/StillImage" />
        <dc:title></dc:title>
      </cc:Work>
    </rdf:RDF>
  </metadata>
  <defs
     id="defs885" />
  <sodipodi:namedview
     pagecolor="#ffffff"
     bordercolor="#666666"
     borderopacity="1"
     objecttolerance="10"
     gridtolerance="10"
     guidetolerance="10"
     inkscape:pageopacity="0"
     inkscape:pageshadow="2"
     inkscape:window-width="3840"
     inkscape:window-height="2034"
     id="namedview883"
     showgrid="false"
     inkscape:zoom="4.7275643"
     inkscape:cx="-29.31254"
     inkscape:cy="24.959999"
     inkscape:window-x="0"
     inkscape:window-y="60"
     inkscape:window-maximized="1"
     inkscape:current-layer="g1434" />
  <g
     id="g1434"
     transform="translate(-14.383728,-3.1728812)">
    <path
       style="fill:#3373a0;stroke-width:0.31999999"
       d="m 16.110142,52.825845 c -0.798975,-0.322266 -1.219635,-1.792052 -0.912769,-3.189203 0.114522,-0.521415 1.255182,-3.293415 2.5348,-6.16 l 2.326579,-5.211974 1.730625,-0.220541 c 3.431735,-0.437322 6.205748,-2.328426 7.187898,-4.900149 0.823701,-2.156831 0.550821,-5.751156 -0.564589,-7.436655 -1.190351,-1.79874 -3.55824,-2.915144 -6.814435,-3.212846 -2.764124,-0.252713 -2.617808,-0.114189 -3.154825,-2.986826 l -0.216296,-1.157018 2.806437,-1.351477 c 1.54354,-0.743312 4.200019,-1.718599 5.903287,-2.167303 l 3.096851,-0.815827 0.220868,-2.435679 c 0.263785,-2.9089656 0.670653,-3.9982238 2.102655,-5.6291845 3.507017,-3.9942708 10.41085,-2.8470028 12.897627,2.1433069 0.639292,1.2828934 0.825149,2.1373956 0.825149,3.7937376 v 2.137879 l 2.771066,0.695003 c 3.048378,0.764556 7.291418,2.339415 8.22746,3.053729 0.57831,0.441319 0.579846,0.532974 0.04553,2.713299 l -0.552998,2.256551 h -1.828525 c -3.444656,0 -6.375155,1.607833 -7.784405,4.270953 -0.543741,1.027531 -0.703296,1.873526 -0.703296,3.729047 0,2.891875 0.807518,4.704102 2.631486,5.90558 1.393252,0.917751 4.445073,1.77442 6.321258,1.77442 h 1.313117 l 0.892035,3.119999 c 0.490618,1.716 1.449965,4.320477 2.131885,5.787725 1.220976,2.627101 1.403668,3.30161 1.305152,4.818688 -0.04853,0.747337 -0.10352,0.761901 -2.209766,0.585129 -1.822471,-0.152956 -5.523946,-0.967859 -11.360001,-2.500972 l -1.2,-0.315239 -0.0018,-1.827664 c -0.0028,-2.827574 -0.499913,-4.099462 -2.341879,-5.991347 -2.000057,-2.054255 -4.379919,-2.925644 -7.030121,-2.574083 -3.957848,0.525028 -5.671961,2.797024 -6.513077,8.632854 l -0.273121,1.895088 -3.680001,0.869642 c -2.024,0.478304 -4.819034,1.173513 -6.211188,1.544912 -2.791462,0.744704 -2.925795,0.756921 -3.918673,0.356445 z"
       id="path1436"
       inkscape:connector-curvature="0" />
  </g>
</svg>
