<svg xmlns="http://www.w3.org/2000/svg" viewBox="0 0 1411.17 282"><defs><style>.cls-1{fill:#0072ff;fill-rule:evenodd;}</style></defs><title>Ativo 6</title><g id="Camada_2" data-name="Camada 2"><g id="Camada_1-2" data-name="Camada 1"><path class="cls-1" d="M394.19,127.77q-8-18.76-37.87-18.77H298.57q-29.56-.94-36.91,30.5L228.79,245.77c-4.79,23.4,6.63,36.23,32,36.23h56.88q38.67,0,48.34-34.78l29.15-98.29A31.39,31.39,0,0,0,394.19,127.77ZM358,160.21,332.67,240a15.22,15.22,0,0,1-14.5,10.6H280.73a15.2,15.2,0,0,1-14.49-19.81L291.58,151a15.2,15.2,0,0,1,14.49-10.6h37.44A15.2,15.2,0,0,1,358,160.21Z"/><path class="cls-1" d="M1346.54,211H1261c-23.38,0,.25-104.35,42.23-103h107.93l-23.73,34-75,.22c-17.74,0-19.92,21.66-24.26,34.78h81.59c31.29,0,3.26,104-47.33,104l-100.17-.47L1244.09,248l82.69.49C1338.69,246,1345.08,221.1,1346.54,211Z"/><polygon class="cls-1" points="1189.31 282 1155.56 282 1208.51 122.05 1244.21 106.69 1189.31 282"/><polygon class="cls-1" points="1186.33 36.48 1109.85 282 1076.13 282 1151.89 50.33 1186.33 36.48"/><polygon class="cls-1" points="1040.84 282 1007.11 282 1058.14 120.86 1095.32 105.32 1040.84 282"/><path class="cls-1" d="M973.41,119.75,922.16,118l25.41-82.58-36.31,15.5L848.13,250.1c-3.75,19.06,7.65,31.9,33,31.9H938q38.72,0,48.39-34.79s23.25-68.88,27.31-92.74C1017.41,132.53,1000,119.75,973.41,119.75Zm3,50.68-24.22,72.49a14.48,14.48,0,0,1-13.85,9.64h-35.8c-9.83,0-16.82-9.09-13.85-18l24.22-72.5a14.49,14.49,0,0,1,13.86-9.63h35.79C972.38,152.43,979.38,161.52,976.4,170.43Z"/><path class="cls-1" d="M709,177l77.89,0-24.22,35-42.75-.21c-3.1,9.73-17.23,36.21,2.93,36.21l46.27.48c4.38.05,9.6-3.78,11.76-11l17.93-60.2C801.22,170,814.91,142,797.62,142H707l22.09-33,74.12-.42c26.49-.16,40.05,11.08,40.61,33.25l-31,104.51Q803.2,281,764.61,281h-57.1c-25.24,0-36.63-12.79-31.83-36.1L692,192.2C695.18,182,701,177,709,177Z"/><path class="cls-1" d="M646.1,142h-41l-30.84,95.53c.38,8.28,4.12,12.08,11.17,11.47H620l-13.9,32H569.62q-32.82,0-31.34-35.73L597.06,55.89l37.64-16L614.19,109l69.69.09-22.57,32.48Z"/><path class="cls-1" d="M506.35,142.59c-15.25,0-37.4-5.22-45.51,11.46l-26.44,84L420.88,282H387l11.42-35.73L430,143.81c7.12-23,18.56-33.84,38.11-33.81l93.17.09L539.08,143Z"/><path class="cls-1" d="M213.42.22,141.78,0c-10.12,0-20.57.19-30,4.17-17.94,7.5-31.39,25-41.62,48.91L0,281H39.34c13.33-41.87,25.35-84.08,38.74-126H181c18-1.45,35-1.94,49.89-26C243,94.23,276.75,7,213.42.22Zm-1.74,56.46c-4,23.17-7.33,63.33-36.05,61.32l-86-1.11,20.48-61.24C117.8,41.16,127.79,38,138.86,38h56.85C204.22,38,214.54,45.78,211.68,56.68Z"/></g></g></svg>