<?xml version="1.0" encoding="UTF-8" standalone="no"?>
<!-- Created with Inkscape (http://www.inkscape.org/) -->

<svg
   xmlns:dc="http://purl.org/dc/elements/1.1/"
   xmlns:cc="http://creativecommons.org/ns#"
   xmlns:rdf="http://www.w3.org/1999/02/22-rdf-syntax-ns#"
   xmlns:svg="http://www.w3.org/2000/svg"
   xmlns="http://www.w3.org/2000/svg"
   xmlns:sodipodi="http://sodipodi.sourceforge.net/DTD/sodipodi-0.dtd"
   xmlns:inkscape="http://www.inkscape.org/namespaces/inkscape"
   width="142.63019mm"
   height="159.46957mm"
   viewBox="0 0 142.63019 159.46957"
   version="1.1"
   id="svg8"
   inkscape:version="0.92.3 (2405546, 2018-03-11)"
   sodipodi:docname="redelivre.svg">
  <defs
     id="defs2" />
  <sodipodi:namedview
     id="base"
     pagecolor="#ffffff"
     bordercolor="#666666"
     borderopacity="1.0"
     inkscape:pageopacity="0.0"
     inkscape:pageshadow="2"
     inkscape:zoom="0.98994949"
     inkscape:cx="-126.52645"
     inkscape:cy="195.36485"
     inkscape:document-units="mm"
     inkscape:current-layer="layer1"
     showgrid="false"
     inkscape:window-width="3840"
     inkscape:window-height="2034"
     inkscape:window-x="0"
     inkscape:window-y="60"
     inkscape:window-maximized="1"
     fit-margin-top="0"
     fit-margin-left="0"
     fit-margin-right="0"
     fit-margin-bottom="0" />
  <metadata
     id="metadata5">
    <rdf:RDF>
      <cc:Work
         rdf:about="">
        <dc:format>image/svg+xml</dc:format>
        <dc:type
           rdf:resource="http://purl.org/dc/dcmitype/StillImage" />
        <dc:title></dc:title>
      </cc:Work>
    </rdf:RDF>
  </metadata>
  <g
     inkscape:label="Layer 1"
     inkscape:groupmode="layer"
     id="layer1"
     transform="translate(-32.118449,-26.344346)">
    <g
       id="g880"
       transform="translate(-210.60839,5.8799296)"
       style="fill:#fb0278;fill-opacity:1">
      <path
         style="fill:#fb0278;fill-opacity:1;stroke-width:0.26458332"
         d="m 332.29404,178.52198 c -1.45521,-0.8473 -6.21771,-3.61114 -10.58333,-6.14187 -4.36563,-2.53073 -8.20539,-4.86615 -8.53282,-5.18981 -0.59345,-0.58664 -0.5953,-0.61558 -0.5917,-9.26561 0.002,-4.77242 0.0692,-8.92127 0.14936,-9.21967 0.0967,-0.35991 1.57712,-1.37067 4.39793,-3.00266 3.53325,-2.04417 4.34679,-2.4169 4.81159,-2.20447 0.30766,0.1406 2.85975,1.5811 5.6713,3.2011 2.81155,1.61999 5.25424,2.94545 5.42821,2.94545 0.17397,0 1.74314,-0.80511 3.48705,-1.78914 l 3.17074,-1.78913 v -1.04583 -1.04583 l -3.04271,-1.76495 c -1.67348,-0.97072 -7.20989,-4.15035 -12.30312,-7.06584 -5.09323,-2.9155 -9.7962,-5.6378 -10.45104,-6.04957 l -1.19063,-0.74867 -0.0718,-5.09323 c -0.0562,-3.98394 10e-4,-5.09218 0.26458,-5.08843 0.45078,0.006 -0.60218,-0.59119 31.29269,17.76021 l 4.7625,2.7402 0.071,6.12785 c 0.0588,5.08041 0.005,6.19369 -0.3143,6.51311 -0.63881,0.63881 -15.14318,8.92258 -15.62289,8.92258 -0.24484,0 -2.74946,-1.32198 -5.56583,-2.93774 -2.81636,-1.61576 -5.24825,-2.85889 -5.4042,-2.76251 -0.3227,0.19944 -0.39596,6.70299 -0.081,7.19388 0.341,0.53154 12.50842,7.5022 13.09523,7.5022 0.41263,0 19.10652,-10.58229 22.42103,-12.69216 0.33526,-0.21342 0.41741,-1.61983 0.52916,-9.05992 l 0.1323,-8.80729 13.35896,-7.72833 c 7.34743,-4.25058 13.45208,-7.6352 13.5659,-7.52138 0.11382,0.11382 0.17448,2.46047 0.13479,5.21478 l -0.0722,5.00785 -2.38125,1.40333 c -1.30968,0.77184 -5.29828,3.09649 -8.86354,5.16591 l -6.48229,3.76257 -0.13229,8.76921 c -0.0728,4.82307 -0.19182,8.8263 -0.26458,8.89608 -0.34629,0.33208 -31.21428,18.13518 -31.71857,18.29367 -0.23793,0.0748 -1.60431,-0.55012 -3.07414,-1.40594 z m 48.65903,-14.2328 c -2.16945,-1.24746 -4.09328,-2.38852 -4.27518,-2.53569 -0.24921,-0.20165 -0.32973,-1.93876 -0.32668,-7.04822 0.002,-3.72934 0.0915,-6.90501 0.19844,-7.05703 0.35014,-0.49788 7.96911,-4.88297 8.48401,-4.88297 0.36884,0 0.4546,23.42691 0.0866,23.65435 -0.12251,0.0757 -1.99774,-0.88298 -4.16718,-2.13044 z M 242.8558,164.9293 c -0.0708,-0.18475 -0.0977,-6.0509 -0.0598,-13.0359 l 0.0689,-12.7 2.27465,-0.0759 c 1.68129,-0.0561 2.3534,0.019 2.57654,0.2879 0.212,0.25544 0.32253,3.42943 0.37119,10.65919 l 0.0693,10.29543 2.89471,0.0756 c 1.63136,0.0426 3.05044,0.20486 3.25153,0.37175 0.25574,0.21225 0.33515,0.86543 0.28029,2.30564 l -0.0765,2.0095 -5.761,0.0713 c -4.46489,0.0553 -5.78997,-0.004 -5.88973,-0.26459 z m 13.23102,0.005 c -0.0718,-0.1874 -0.0996,-6.05572 -0.0617,-13.04072 l 0.0689,-12.7 2.27464,-0.0759 c 1.70063,-0.0567 2.35228,0.0177 2.58228,0.29481 0.22649,0.27291 0.2895,3.71213 0.23889,13.04044 l -0.0687,12.66977 -2.45187,0.0761 c -1.81258,0.0563 -2.48591,-0.0127 -2.58244,-0.26459 z m 10.59069,-0.01 c -0.0635,-0.1819 -1.00866,-5.91887 -2.10023,-12.74883 -1.46271,-9.15214 -1.90872,-12.50964 -1.69584,-12.76614 0.19679,-0.23712 0.99713,-0.34804 2.51109,-0.34804 2.05469,0 2.24092,0.0449 2.47015,0.59531 0.13635,0.32742 0.68473,3.57187 1.21861,7.20989 0.88919,6.05916 1.17862,7.35358 1.55917,6.97303 0.0745,-0.0745 0.61517,-3.27256 1.20152,-7.10682 0.58634,-3.83425 1.1968,-7.12888 1.35657,-7.3214 0.40473,-0.48766 4.02124,-0.48064 4.42727,0.009 0.22457,0.27058 -0.19379,3.4335 -1.70426,12.88486 -1.10104,6.88944 -2.06086,12.62166 -2.13292,12.73827 -0.22933,0.37105 -6.97939,0.25836 -7.11113,-0.11872 z m 12.73182,-0.0783 c -0.0903,-0.23542 -0.16425,-5.99041 -0.16425,-12.78889 0,-9.26122 0.0796,-12.44047 0.3175,-12.67835 0.41257,-0.41257 7.45895,-0.4323 9.07486,-0.0254 0.638,0.16065 1.64239,0.70499 2.23196,1.20964 1.46319,1.25244 1.9488,2.94998 1.8275,6.38831 -0.0771,2.186 -0.20106,2.77945 -0.84635,4.05294 l -0.75599,1.49195 0.75043,1.28051 c 0.72908,1.24408 0.75523,1.41996 0.91902,6.18097 0.0927,2.69525 0.11796,4.98975 0.0561,5.09889 -0.0619,0.10914 -1.16539,0.19844 -2.45225,0.19844 h -2.33975 l -0.29047,-0.83323 c -0.15975,-0.45829 -0.29046,-2.40676 -0.29046,-4.32995 0,-3.1369 -0.0564,-3.56845 -0.54837,-4.19385 -0.3693,-0.46949 -0.8013,-0.69714 -1.32292,-0.69714 -0.426,0 -0.79749,0.0298 -0.82554,0.0661 -0.028,0.0364 -0.11734,2.26881 -0.19844,4.96094 l -0.14744,4.89479 -2.41544,0.0756 c -2.02663,0.0635 -2.44188,0.007 -2.57969,-0.35236 z m 7.59951,-15.28421 c 0.70982,-0.82374 0.55575,-4.80435 -0.20756,-5.36249 -0.62756,-0.45888 -1.5196,-0.48548 -1.94703,-0.058 -0.51365,0.51366 -0.42545,5.35759 0.10725,5.8903 0.5169,0.51689 1.36477,0.32235 2.04734,-0.46976 z m 8.00913,15.27959 c -0.21102,-0.54993 -0.21282,-24.81189 -0.002,-25.36161 0.13962,-0.36383 0.91051,-0.41851 5.90021,-0.41851 4.11136,0 5.82968,0.0901 6.05711,0.3175 0.1828,0.1828 0.3175,1.05833 0.3175,2.06374 0,1.00542 -0.1347,1.88095 -0.3175,2.06375 -0.20881,0.20881 -1.32292,0.3175 -3.25437,0.3175 -1.93146,0 -3.04557,0.1087 -3.25438,0.3175 -0.4516,0.4516 -0.42891,4.81692 0.027,5.19529 0.18948,0.15726 1.40987,0.32066 2.71198,0.36313 l 2.36745,0.0772 v 2.24896 2.24896 l -2.36747,0.0772 c -1.30211,0.0425 -2.5225,0.20587 -2.71198,0.36312 -0.45769,0.37985 -0.48057,5.00631 -0.027,5.45987 0.20907,0.20908 1.32747,0.3175 3.27489,0.3175 2.21964,0 3.0345,0.0929 3.26646,0.37241 0.19163,0.23089 0.27934,1.1106 0.23084,2.3151 l -0.0782,1.9427 -5.98909,0.071 c -5.28821,0.0627 -6.0081,0.0215 -6.15156,-0.35237 z m -51.82237,-28.4473 c -0.43171,-0.25145 -0.46302,-1.21342 -0.46302,-14.22654 0,-10.50255 0.0786,-14.03543 0.3175,-14.27435 0.40849,-0.40849 7.84255,-0.43441 9.71025,-0.0339 1.80657,0.38744 3.38049,1.58519 4.08429,3.10811 0.49387,1.06867 0.57234,1.71006 0.57234,4.67805 0,3.51436 -0.24649,4.5378 -1.51341,6.28385 -0.26727,0.36834 -0.26918,0.55771 -0.009,0.92605 1.40064,1.98565 1.47623,2.34836 1.66803,8.00364 0.1323,3.90094 0.10059,5.47854 -0.11295,5.61835 -0.16329,0.10691 -1.20644,0.19621 -2.3181,0.19843 -3.2227,0.006 -3.20618,0.0341 -3.38667,-5.67209 -0.14426,-4.56039 -0.16617,-4.70499 -0.78948,-5.20911 -0.40203,-0.32516 -0.94471,-0.48888 -1.45521,-0.43903 l -0.8141,0.0795 -0.0717,5.36646 -0.0717,5.36645 -0.67318,0.25594 c -0.88206,0.33536 -4.08169,0.31494 -4.67362,-0.0298 z m 7.88693,-16.75824 c 0.43372,-0.31691 0.52789,-0.77066 0.60552,-2.91751 0.11753,-3.2501 -0.2169,-3.92113 -1.89343,-3.79928 l -1.10891,0.0806 -0.075,3.15959 c -0.0412,1.73778 -0.0152,3.31536 0.0578,3.50573 0.177,0.46127 1.76911,0.44205 2.41396,-0.0291 z m 9.60273,16.86686 c -0.23973,-0.0637 -0.506,-0.37728 -0.5917,-0.69691 -0.28641,-1.06811 -0.18204,-27.1711 0.11083,-27.71833 0.25908,-0.48408 0.61641,-0.51177 6.60528,-0.51177 7.31268,0 6.87916,-0.17279 6.87916,2.74183 0,2.48989 -0.0993,2.54984 -4.22392,2.54984 -2.84933,0 -3.41809,0.067 -3.55298,0.41851 -0.20875,0.54399 -0.20875,4.96898 0,5.51297 0.13214,0.34436 0.6462,0.41852 2.90111,0.41852 3.21349,0 3.28829,0.0602 3.28829,2.64583 0,2.58565 -0.0748,2.64583 -3.28829,2.64583 -2.25491,0 -2.76897,0.0742 -2.90111,0.41852 -0.30424,0.79283 -0.17609,5.81015 0.1569,6.14315 0.21356,0.21355 1.41567,0.3175 3.67177,0.3175 2.64381,0 3.42334,0.0832 3.68037,0.39292 0.47052,0.56694 0.25501,4.31319 -0.26711,4.64335 -0.37982,0.24018 -11.59399,0.31054 -12.4686,0.0782 z m 15.84485,-0.12809 c -0.43628,-0.33348 -0.46161,-1.25963 -0.39688,-14.51142 l 0.0691,-14.15521 5.02708,0.006 c 4.75974,0.005 5.09549,0.0394 6.31335,0.63831 1.37535,0.67636 2.56226,2.06958 3.13188,3.67629 0.49392,1.39317 0.49135,18.47701 -0.003,20.11143 -0.47429,1.568 -2.15918,3.33504 -3.70321,3.88374 -1.70699,0.60662 -9.75013,0.87715 -10.43834,0.35109 z m 8.15451,-5.3617 c 0.4864,-0.3554 0.51767,-0.81222 0.59068,-8.62868 0.0909,-9.7344 0.12249,-9.595 -2.14244,-9.46404 l -1.37424,0.0795 -0.0698,8.83208 c -0.0497,6.29751 0.0165,8.93602 0.23084,9.19427 0.39291,0.47343 2.11021,0.4653 2.76491,-0.0131 z m 9.31098,5.38117 c -0.43181,-0.25151 -0.46302,-1.22089 -0.46302,-14.38344 0,-12.62582 0.0441,-14.13068 0.41852,-14.27435 0.54594,-0.2095 12.11078,-0.2095 12.65672,0 0.3345,0.12836 0.41851,0.59572 0.41851,2.32833 0,1.33324 -0.12223,2.28996 -0.3175,2.48524 -0.21519,0.21519 -1.45413,0.3175 -3.84486,0.3175 h -3.52735 l 0.0745,3.10885 0.0745,3.10885 2.63102,0.0763 c 1.44705,0.042 2.7865,0.2054 2.97656,0.36313 0.22998,0.19087 0.34555,0.973 0.34555,2.33865 0,1.36565 -0.11557,2.14778 -0.34555,2.33865 -0.19006,0.15773 -1.52951,0.32114 -2.97656,0.36313 l -2.63102,0.0763 v 3.3073 3.30729 l 3.70417,0.13229 3.70416,0.13229 0.0778,2.24396 c 0.0653,1.88254 0.004,2.29804 -0.38129,2.57969 -0.57749,0.42227 -11.8788,0.46709 -12.59498,0.0499 z m 53.64427,-9.80037 c -19.88386,-11.47247 -25.69528,-14.85255 -25.92916,-15.08108 -0.16034,-0.15667 -0.31671,-3.70618 -0.39688,-9.00861 l -0.13229,-8.750076 -3.30729,-1.90591 c -1.81901,-1.04825 -6.84651,-3.95101 -11.17222,-6.45058 -4.32571,-2.49957 -8.02179,-4.54468 -8.2135,-4.54468 -0.39665,0 -21.77468,12.26248 -22.48459,12.8972 -0.38036,0.34007 -0.46302,0.8696 -0.46302,2.96589 0,1.63204 -0.11445,2.66636 -0.3175,2.86941 -0.44385,0.443836 -8.18158,0.443836 -8.62542,0 -0.35501,-0.355 -0.46103,-10.44357 -0.11501,-10.94362 0.30817,-0.44534 31.52158,-18.37221 31.98883,-18.37221 0.38253,0 2.76402,1.34198 18.47639,10.41154 2.76489,1.59596 6.93208,3.99715 9.26041,5.33596 l 4.23334,2.43421 0.13229,8.82847 0.13229,8.828466 1.5875,0.95729 c 4.5545,2.74645 21.03249,12.15198 21.28963,12.15198 0.16416,0 3.06115,-1.59329 6.43775,-3.54063 3.37661,-1.94734 8.34194,-4.81075 11.03408,-6.36312 2.69213,-1.55238 5.04362,-3.01795 5.22552,-3.25682 0.35696,-0.46877 0.44602,-2.65522 0.12824,-3.1484 -0.25689,-0.39868 -3.36505,-2.21187 -3.79157,-2.21187 -0.18324,0 -3.91367,2.0767 -8.28986,4.61488 -4.37619,2.53818 -8.15785,4.69127 -8.40369,4.78465 -0.47247,0.17946 -15.39259,-8.27426 -16.02333,-9.0788 -0.24146,-0.308 -0.33073,-1.971436 -0.33073,-6.162816 0,-5.08811 0.0526,-5.80157 0.46302,-6.27402 0.40434,-0.46551 6.74781,-4.18327 26.35383,-15.44535 2.7438,-1.57609 5.18644,-2.86562 5.42808,-2.86562 0.39753,0 3.94502,1.97662 10.88215,6.06342 l 2.51354,1.48077 0.0722,5.00606 c 0.0397,2.75334 -0.02,5.0982 -0.13261,5.21082 -0.11261,0.11262 -3.11513,-1.47362 -6.67225,-3.52499 -5.72869,-3.3037 -6.5447,-3.70039 -7.14343,-3.47267 -0.88248,0.33566 -21.43687,12.2073 -22.04105,12.7303 -0.54158,0.46881 -0.61317,1.71689 -0.12186,2.12463 0.18763,0.15573 1.69224,1.05412 3.34356,1.99643 2.35348,1.343 3.12323,1.66547 3.56144,1.492 0.30748,-0.12172 4.07139,-2.25555 8.36425,-4.74185 4.29287,-2.4863 7.98381,-4.51819 8.20209,-4.51532 0.21828,0.003 3.13531,1.58749 6.48229,3.52136 l 6.08541,3.51614 0.0703,7.149166 c 0.0645,6.55844 0.0317,7.1819 -0.39688,7.54532 -0.25695,0.21788 -5.70594,3.41223 -12.10885,7.09856 -6.40292,3.68633 -13.24555,7.63587 -15.20586,8.77676 -1.96031,1.14089 -3.74624,2.07408 -3.96875,2.07376 -0.22251,-3.2e-4 -2.90487,-1.4432 -5.96081,-3.2064 z M 248.44002,99.487004 c -0.32164,-0.32164 -0.41577,-1.00526 -0.41577,-3.01955 v -2.60378 l -2.18281,-1.24788 c -3.39098,-1.93856 -3.10886,-1.29956 -3.10886,-7.04152 0,-4.13914 0.0641,-4.98608 0.37705,-4.98608 0.45609,0 13.69675,7.61663 13.97255,8.03764 0.10691,0.16321 0.19621,2.69501 0.19843,5.62624 0.004,4.61817 -0.0518,5.35094 -0.41446,5.4901 -0.23018,0.0883 -2.12668,0.1606 -4.21443,0.1606 -3.09806,0 -3.87236,-0.0764 -4.2117,-0.41577 z m 37.22121,0.24055 c -0.18418,-0.0743 -0.33073,-0.58467 -0.33073,-1.15173 0,-0.8124 0.1471,-1.12004 0.7276,-1.5217 1.55228,-1.07402 11.92823,-6.94093 12.27543,-6.94093 0.20186,0 3.22259,1.64243 6.71273,3.64985 6.09766,3.5072 6.34899,3.68368 6.42989,4.5152 0.16477,1.69334 0.70616,1.62663 -13.01503,1.60364 -6.85804,-0.0115 -12.61799,-0.0809 -12.79989,-0.15433 z m -33.03759,-24.37094 c -4.96466,-2.87071 -9.22115,-5.38287 -9.45886,-5.58259 -0.37107,-0.31177 -0.4322,-1.05197 -0.4322,-5.23382 0,-3.851943 0.0749,-4.899452 0.35824,-5.008167 0.19703,-0.07561 4.0818,2.016543 8.63282,4.649227 9.37585,5.42376 9.62304,5.55901 10.15942,5.55901 0.35285,0 2.8607,-1.40505 13.79015,-7.72613 1.89177,-1.09411 4.63021,-2.674662 6.08541,-3.512338 1.45521,-0.837674 2.73331,-1.65803 2.84022,-1.823014 0.10692,-0.164984 0.19621,-4.13163 0.19844,-8.814768 l 0.004,-8.514795 0.72761,-0.50614 c 0.40018,-0.278376 3.52557,-2.119319 6.94531,-4.090983 3.41974,-1.971663 10.26218,-5.919195 15.20543,-8.772292 4.94325,-2.853098 9.1142,-5.18745 9.26877,-5.18745 0.15456,0 2.65853,1.381747 5.56435,3.07055 6.64675,3.862943 10.83055,6.278533 18.51249,10.688518 3.34698,1.921406 6.5319,3.780522 7.0776,4.131369 l 0.99219,0.637903 -0.004,6.015517 c -0.002,3.308533 -0.0915,6.149158 -0.19843,6.312495 -0.2803,0.428229 -15.3297,9.09573 -15.79294,9.09573 -0.21344,0 -4.09527,-2.135762 -8.6263,-4.746138 -7.02447,-4.046884 -8.32998,-4.711253 -8.86101,-4.509358 -0.9239,0.351267 -2.84952,1.579306 -3.2282,2.058742 -0.49241,0.62343 -0.41236,2.545643 0.13229,3.176622 0.25466,0.295023 2.48708,1.699117 4.96094,3.120204 2.47385,1.421091 7.35319,4.228986 10.84298,6.239776 3.48978,2.01079 6.55404,3.65598 6.80945,3.65598 0.52642,0 22.4544,-12.577734 22.75688,-13.053177 0.10787,-0.169553 0.19795,-4.146547 0.20017,-8.837771 l 0.004,-8.529492 1.0639,-0.671611 c 1.72878,-1.091329 25.23997,-14.638193 25.73479,-14.828072 0.41858,-0.160626 0.4534,0.221881 0.4534,4.9813 0,3.803193 -0.0867,5.226417 -0.33073,5.426498 -0.1819,0.149167 -3.78354,2.257429 -8.00365,4.685028 -4.2201,2.427598 -8.1194,4.703069 -8.6651,5.056605 l -0.99219,0.64279 v 8.348014 c 0,5.144672 -0.10311,8.540673 -0.2687,8.850088 -0.32968,0.61601 -1.73973,1.45047 -27.4929,16.27011 -2.24476,1.29175 -4.28151,2.33356 -4.5261,2.31513 -0.38887,-0.0293 -30.81227,-17.44252 -31.67532,-18.12978 -0.24955,-0.19873 -0.33073,-1.974807 -0.33073,-7.236327 0,-6.946426 0.002,-6.974355 0.59531,-7.33883 1.53859,-0.945581 11.34366,-6.551749 11.91092,-6.810208 0.57887,-0.263752 1.45201,0.175435 8.93468,4.494112 4.56121,2.632538 8.41929,4.785183 8.5735,4.783656 0.15421,-0.0016 1.70913,-0.821314 3.45538,-1.821746 3.04867,-1.746597 3.17824,-1.856475 3.2563,-2.76157 0.0724,-0.839377 -0.029,-1.013484 -0.92604,-1.589916 -3.29438,-2.116973 -21.86766,-12.631283 -22.133,-12.529462 -0.17588,0.06749 -2.16205,1.186231 -4.41372,2.486094 -2.25168,1.299863 -6.95145,4.009049 -10.44395,6.020415 -3.4925,2.011366 -6.67743,3.886915 -7.07761,4.167887 l -0.7276,0.510857 v 8.333753 c 0,5.043789 -0.10434,8.528706 -0.2643,8.827595 -0.14536,0.27161 -1.24669,1.07824 -2.44739,1.79252 -4.15308,2.47057 -28.91011,16.69623 -29.30419,16.83849 -0.22579,0.0815 -4.27005,-2.09751 -9.42223,-5.07664 z m 128.06631,-10.73565 -4.2105,-2.45118 v -7.090771 -7.090772 l 4.07596,-2.353149 c 2.24178,-1.29423 4.23608,-2.353146 4.43177,-2.353146 0.29269,0 0.35582,2.085949 0.35582,11.758342 0,6.467089 -0.0996,11.819886 -0.22128,11.895096 -0.1217,0.0752 -2.11599,-0.96627 -4.43177,-2.31442 z M 251.993,56.521272 c -4.00182,-2.308164 -7.72253,-4.503724 -8.26823,-4.879022 l -0.99219,-0.682358 v -5.029599 c 0,-3.893195 0.076,-5.029597 0.33649,-5.029597 0.18507,0 3.9653,2.083396 8.40052,4.629764 4.43522,2.546371 8.18048,4.629965 8.32281,4.630208 0.36782,5.29e-4 6.31589,-3.458723 6.55019,-3.809545 0.10692,-0.160078 0.19621,-0.617378 0.19844,-1.016225 0.005,-0.894426 0.90283,-0.312502 -12.69595,-8.228756 l -10.9802,-6.391904 -0.0722,-5.007843 c -0.0397,-2.754314 0.0318,-5.111778 0.15881,-5.238808 0.13156,-0.131565 7.22249,3.845569 16.47632,9.241176 l 16.24536,9.472142 0.0648,6.085416 c 0.0357,3.346979 -0.0239,6.217139 -0.13229,6.378136 -0.31943,0.474331 -15.40886,9.101243 -15.89372,9.086733 -0.24364,-0.0073 -3.71721,-1.901754 -7.71903,-4.209918 z"
         id="path888"
         inkscape:connector-curvature="0" />
    </g>
  </g>
</svg>
